<mxfile host="Electron" modified="2024-04-15T12:47:07.940Z" agent="Mozilla/5.0 (X11; Linux x86_64) AppleWebKit/537.36 (KHTML, like Gecko) draw.io/24.0.4 Chrome/120.0.6099.109 Electron/28.1.0 Safari/537.36" etag="HT7fO-0toaQpKhSu1cTI" version="24.0.4" type="device">
  <diagram id="A4b9VSvAurynX6zqo_iu" name="Page-1">
    <mxGraphModel dx="9512" dy="2495" grid="1" gridSize="5" guides="1" tooltips="1" connect="1" arrows="1" fold="1" page="1" pageScale="1" pageWidth="850" pageHeight="1100" math="1" shadow="0">
      <root>
        <mxCell id="0" />
        <mxCell id="1" parent="0" />
        <mxCell id="o14Ys3CnEIRWjD--yxSJ-4" value="" style="shape=image;verticalLabelPosition=bottom;labelBackgroundColor=default;verticalAlign=top;aspect=fixed;imageAspect=0;image=data:image/png,iVBORw0KGgoAAAANSUhEUgAAAQAAAAEAAQAAAAB0CZXLAAAAB3RJTUUH4wQMBSAH7nmpHgAABDFJREFUaIHt2U2u5CYQAGA7luJdOAJzknCVOUgULGWRZa7EKBdBygUsZWMplolNUVWAwdWaTnbN5vm1vwdVxU+7+w3Dp33ap33ap73SvrwNvr4NvASccH+SwCwBJQEtAfM2sBIIAhglMEtASUC3wQ90ZSRgJRDeBeP/Bn58GUzfC36SgMKL+QWwtIAmKQH9AmjdHwz+mZHB8QxsB9gbmNdnMIYSUG4hARt8D+wQa1nxEcEI4JyyGjgCG3RQFnRCMEVwsqpeOVjjlFbloC09R2Ai+NoBHkY4BlsAn4FrhDMZ6xkoBOpKT11gG8zeBksM4QQ6S0Rj5dWVnr3AWhwlhsEBMZ5dqmy+COgzuCmCJWIGG4INkgjlDrAMrrGhkPkeImDOsTWUIVUVWloFAFKWaeJuwEGWHhZFuj9mIGXpACw1sAdlGaUjkFK2O2UZQYpyYrBREldkGCWDaxID3gg0cgEwiThpB4GAgJKAWYU0ZgbrhDEC8CU4d6QKgbcfRjljX2PwnERa3DWwlATkU4IpfAuUBFRkqcDvgV4F4CrwB8cIy98XYA6aQ8D9ka4cXBgOAcBegsNmO3+m4QjoCNYchApwDkNaOq4AXMYH4Evg0+u+LC6DtQbUQVrfWw5s3kECewX2Ghx5zzYUZ/hrIOQAYqK9HnDuDdY3wOFF26gF6K8IuBaAYhi8voNs1eLhXQIol0aMwDDwLaD5Pi/FWFvDIxVjKCxlAjYHV6Iz2gT2nPgGWPGVlBz+uiBweZ749hmuUlIdqkpMOFoGONUFV0wJxjzKEcPJABdjpQFLMCHYaL63AlAtduquAhjmQWAvARVrQbzHn7yauQ40WyWYMcseuF72xXA1mAJfNQG3VMpFfTcYXgSuD6wEjASg1r4P1GtgnbtglsDEwDfBKAEoxPYAtASUBODJ8AHENPbbQ3AFjgcwSgBWxFsgVuq3B2AQLHXPSwb+vAF+jtNtECvs6OqvGvA7JtT671B+GEhb8iDwTwnopFuG7MxqAZ//css98EPjDeTHFJ169yQCf96pAR/pAx2L5UcajcDh5rp95uExphbgM5+u9wJwEA6vK4C58ZthBTC363XdAgrBkb3/NtM4g5hbgObwnLCpBTiNNXucatZyT7gGFMSR8qxBPl8mFb1TCVc9Zd4q4bOn42YQ6aHhBiiIDQpxBxjEDoW4A6oEdHYHFITrAFpVa6zULU1eNEcMpwEoiKUDqFROtwGtibUDKIitBygICPVhjFSvezM5WBpglsAogeIRtAmUBPI8WveLPNqA82h/C5WF2QNU7tZcFHn0wCgBnvMeUFIP2EW3ByxFH+CTUB/gVz8P7Zoz/wTga6rHpp6HOJt+yCK2sV+o1H6VgJbAvAhA/LfG5AUwSnkOvVVLjb6I7TXxPyNylNJ0DWIav0jgZwmot8EkgVEC/0H7F2E7Uacci9ahAAAAAElFTkSuQmCC;fontFamily=宋体;fontSize=20;" parent="1" vertex="1">
          <mxGeometry x="-6490" y="-979" width="256" height="256" as="geometry" />
        </mxCell>
        <mxCell id="o14Ys3CnEIRWjD--yxSJ-5" value="" style="shape=image;verticalLabelPosition=bottom;labelBackgroundColor=default;verticalAlign=top;aspect=fixed;imageAspect=0;image=data:image/jpeg,/9j/4AAQSkZJRgABAQAAAQABAAD/2wBDAAgGBgcGBQgHBwcJCQgKDBQNDAsLDBkSEw8UHRofHh0aHBwgJC4nICIsIxwcKDcpLDAxNDQ0Hyc5PTgyPC4zNDL/2wBDAQkJCQwLDBgNDRgyIRwhMjIyMjIyMjIyMjIyMjIyMjIyMjIyMjIyMjIyMjIyMjIyMjIyMjIyMjIyMjIyMjIyMjL/wAARCAEAAQADASIAAhEBAxEB/8QAHwAAAQUBAQEBAQEAAAAAAAAAAAECAwQFBgcICQoL/8QAtRAAAgEDAwIEAwUFBAQAAAF9AQIDAAQRBRIhMUEGE1FhByJxFDKBkaEII0KxwRVS0fAkM2JyggkKFhcYGRolJicoKSo0NTY3ODk6Q0RFRkdISUpTVFVWV1hZWmNkZWZnaGlqc3R1dnd4eXqDhIWGh4iJipKTlJWWl5iZmqKjpKWmp6ipqrKztLW2t7i5usLDxMXGx8jJytLT1NXW19jZ2uHi4+Tl5ufo6erx8vP09fb3+Pn6/8QAHwEAAwEBAQEBAQEBAQAAAAAAAAECAwQFBgcICQoL/8QAtREAAgECBAQDBAcFBAQAAQJ3AAECAxEEBSExBhJBUQdhcRMiMoEIFEKRobHBCSMzUvAVYnLRChYkNOEl8RcYGRomJygpKjU2Nzg5OkNERUZHSElKU1RVVldYWVpjZGVmZ2hpanN0dXZ3eHl6goOEhYaHiImKkpOUlZaXmJmaoqOkpaanqKmqsrO0tba3uLm6wsPExcbHyMnK0tPU1dbX2Nna4uPk5ebn6Onq8vP09fb3+Pn6/9oADAMBAAIRAxEAPwDr1aPflmyCfnUjAIH6fl3qURDeMNjIC5Pt04z17VWUs+CN6xBlJLZ555BHapAzef5atzu4Yry4HPpzx3rURY3hlY4RQ64354z+frmnpLiRVYHLZwBwOvb16djUJlaNXZi4+X7rncM5yAO2Ov6U3zMPtQF8YJU5wRnGe/OTTGWYWMhyoJJYnczjn8vapRIXTPzLg/7OCPX6YqrFI21lWE4ODhM/KT2H+A9KdvDbVXeu8gAjjIxjoR+ZoAshtoyyjjhVJGM8dOadnIG1mZmyfvgNnPTA9qrhiyGTaRGTnfgggdO2ak3blwU3ODk7DgA9s0AWA/AywGcbTkHnuPSpEaPJG5MEZGRj9R1xVYylU2RmP/aVWwVB7nPH9aesjsQGj3sVIwhyP6CgCxHgEMqncDgHPQdiKk3Kdrl87RgAEHIqDn7gJIXnHHA6Ej1p6swA++FH3ccn/P8AhQIflXbcx5O3jr1PGcdqTAwxG3BwT8w6dxSbR5oCFeABuJ7jpUcTuG3ON+MgYwCecDigCYuoGPLUdid2cfWpcZXOFwoJyQPXoPSo04AYk71GMLwTSs+58YOQRuz2OM/5/GgBxd1GSD5m7qSOc+v40ij7oACnPfjJ/wA9qYZFJKlmbI7oSCPX6+1IJWChskpkYAOPwoAmXLAcct17Hp0FDu23JII/vA556HPtUaSZGRkgfKPpnsDTsFVXaQg7cg7T+NADQrEMm3J6DDA/p2pytySVw3UZPOPf9ab5jBVVdgbkYOeDjOPxpRJv+Yg/MR94AEjH9PwpgSgsxwOT0AJ9fX8KYj+YAyyB1ztz6dvx5pGfdlgBzgbucEfh+NR5V+isFK4wc/r68UASBiUD8rtBO4jBzjp7UgYxjDEHoAAen0OOlBKAgKVJHAOcAd8D8KQFghVWGeitu6n6e9AClCG+bnbhhu4PuBim5YuqHcVyVIX2x144pG2k45cA8gH7uMHOfx/CoixjlA2EBiCGwB2yD+dMCcFmHLAk9OePT/P0oLhQY/Tu2Ouc/wCNRhW+QK0jArg7SMH0GOvrzTVbZC/zFcv/AMtG4f2H+e1ICbzShYqm0EbixGM5PpTi3BPAO3JOPX39KgJTcu31xt4PfkE9uTSqzGRDvzgMMFRyPrQI5lJN7AI53uhVQHBPGM5B6/h65qVo5GiEYbYijjcQ35H8P1qJcqWUqRg7VDA8nPt06n9Kmido5m2BxjBBA5H5cn3qUWOCo23zdo2nfhhkY6EgevOKa2MhCzAIONzAqR6euc1I4ZcKpCKpycNww9CPxNISq8NnGABufJAHOOnNAh4hZmy0Z3/MqF/mHXP6YB604qJPMVtxyDhgwBOOAT9OtNK52hYWRQCPnGOc9f8A9X509lcxFghV+oBBwD0ORigB2w+cpwruFwGJBBHcZz9aeIwd6+WFJyoJOBwfXt/9aosg5DJgsxyMAjaffgjnoKkRmWMEsGYjawB6+/PAoESpI43MwRHI+bPVsY7/AP1qWIq7cjcMfMwwo4zxj8c1BErbQIgxQsvDnGDnPHf1qaNiSM5DYDlc7ueMH6/40ATABYwHI6bQcDOOnH8qeqIjv8ygcBCSOx4GP1qMfKGXDA5GSOlPwyNgIwbO4sp4weowevQCgBcfKQcDnkMMsP8AP9afwTkkYI4BOcY9DTAAybNqZz1BOc9ep9qdGcrk5clwoTHfPf8Az6UCuOYneDydnBzwFyM5Hr6U9Qc5UhN3YnqaZudnAUbWJb5WY8YxxmpGUqwDMCMAnJJzQA0BRGJQGAXBDc59+KR1RdxyvHYHOOOp9Pwo3noQ2/buKEc5z6mhVxgk7TjABbjp/nmmAqhiwDBUKjBAPK+/NO2uWbGMHGCw6de2M0KwdcZJBGOewA6Z70zBO/5flJzkHHbrnIOPegCWSNWjxlSOSAfYfpjn86RsCQhWBL+oPbt0pMnewOVIyBtxluhzSrvyDGrEEHvg4oFccuVbcuJOgwR0Gckj9KEBQ7YyvI+71wfQGmBP3YXDId3BI9R2HrSRxhSwWJdpGPkGCBnoSfzoBCuPk7lmA2tjJ4z2/DFAzkP8xIGRhgCDn6YqVQ43DBLhRw5568HI4/Kh5HztJHAJKYz3xn2x6UFEEsbShQTgow4GPU57e9NG5kYMxcdy3XAHP507G58YQ7lwG24J47Y6/jTScHaGywbI3KAAD6Z65oEPyQqNtcq3I2ZyQR3+nFMSMAKka5K5IUqSeehJojjEr7REAoyCN54Hc49PpSlnVXKhieAGYgAA/j/j1p3ARFkc4JCZBYoDgg55PP4Z/nTgHBztjBz1BwefT2zmmumWXzBnphTz9O/tSvCznBzknLN90/5PHAoA5hS8YVtgYuOcP0PcjHU/SpY0fBEcY8osSjK33QD0I7d+QRUUTOE+QAKTnlsfN6ggfpUrM6xrMyMhbBJUng4xz3/xqShHEIUgsI2YkgH5WJHsD26inecrQpJCEcocbMhevUE84+Uk05gSzLlTnBwGx8ufUfT9KSIyMj7SsagbvvDqfr+WPfFAEo8tdzRMny/KRlRnOMjr1x2/xpwVUiBjQ/dZkyvHP8vpUSMHjZ8ucZ75w2OAMDr9akfMexWRuRjaRgtz6Hj8KBEgIXhlDjG44GfpjHb/AAoVxJcvErkyZXzduOM9OTx07VDd3kdtDJNMoCLhVGCu4n/65/CqXh2c3Md3eNhmnuDxk/KABj61PN73KWoXg5GtE6mMckSE8I3ytyM4x0zjmpAQI1jU7kYlgy7SoXPXt0/oagyxKiJVkbIbbvwWGeSDUq8qd27A6B+AM/5P61djK45OGw0aBSpO7IIHpn06dM8ZqVYlwAPkfdkDIP19uw/yKhLCRy80JcKC4X+Nec9Ohx/Kpg3LJhQMHaVIz9QPT60WFcagXaQByB0k6sTnpxTnd9sKO+Md+G3fQdzxnj8KYN7HbtBh6Kc4BGOenOfb2NMhZItxjiEfAJIHXtnHf6j1pgWkBCgsBjGG4HJz/n8ql3kHnGBkKN2Mn0x2qBnKn90i7ccdQOvAB9KQyDaI9w3N23dvUe1IGycAlcFvMXoVwOT6n36UE9cAcHpj/JFRxuhYf3g2M7ixGO315x7+tNSRSdqFVYLgoXyR3wadhXJFAQYUAALjJP3vc8cc/nmnqzZBIIO3Lbue3AHGRUSqFMW5VbABCleTzxn0/wDrVMDGuzoobGAp5UnuSMg9DRYGx6go67d21csflAJ7HH50/JW2LS4XoSoOQB+AzUSsquFEallblQDke+f1p5aSNlVcc8byOv8AhQFxyM2fM5XCn5VIPtz6/WmgB9wwyY+b5WzjnpyOuRQ4DY27S4XAUt+mPzpoHzbtjBeSSFwMH378cYoHclDLjLnaW5Clfb0qTcd4xkbFJwP4ifbvUapk4D7Ce5BPfv6UjsCC0ifMerLyOnTt2pDuK2TuAYFQOTg5P6cdhgVES5VcOXc42rnByevPY0vKw84VSOCVx9fpQgVUBQHau47DyRnnBzzTATKxtz85U43kHd9R+J96Dghch2yQeBjI54+lO+bhhkDO3j9MHP0pC6LMnA2lvl2tja39Of50h3COMqgKjL7SDkY4B4+lSEKYweQMZxnII9MfrSI0aKG3tjkhl9PoOvNLuRgNzqvGQ+QMDOcZP8qAOTjPOAw+YZyFypGOpP8AjTyEKu7EDGcKQDjjGee2f1pEw7fvMhVAX5cq2T0z/ntzSrGWBy+MAEEtjceuD7UFA5ilKjIcHbtCnIIIzyOnHWmqQu5iXjBJ4IH975R/gaJIzPG2SUDEMHQjec9Dnt9KlVljuVyechQRyw/AdvrQIRCpkjLu8gDZyhUenJ4B71YPPDSDAbceO2ev/wBeooeULgByDyF5x07n8/pXJ6xrL3V9Jax7lgSQsBvJV/U/0/CoqTUEa0aLqysiLU9Rm1CedtoS3gYhBnAGeAT+prpPCxH9jkq2VMj/ADNgrxgHiuQdGjiWJm/1n7xlX9Bz7fzrr/DKLHocQwGDyO2Qw9efbtXNh25ScmduLio0UomyU+UJ5oZB94EAnr+g705QGYqFDbiFxnCr/wDX60TIqjc2zhSh6kY7D3P1qSNsskbSkN0LLnHOB0/ziu6x5QKEjccPgEbXIGAPqecULzIy4RML94Y49SfTt9c0/cUyclyRlt2cZB/Qe3vQ22MtvUNhQdu7+L2x6AkUWJGKimZWXaWPUcg/l7EZpEygbBOdwYlQOvQnP+PapmP7rO/fySHI7YzuApAhV12F9uM8nv8A5Jp2BEcsSn5WwSMblBHzDOcc9MfWlEXmBiWBweSqgkjt+PPT8asADgoxJHAzz/LoQSPXpSxK2WXcYyPxIP8AeOexxn3osO5W8oiMbMB1H/LQBQMemPfJ9qlFv5hU5COVz8uCB69uee/ehHVpBEhUSD5jjI3Z5HQ/XrT3aXYHGWwD94nlgAR07dfzoJHgqpXPVcHkfQnP4/1pp3R5fau0qOQAxb0/zilJjA28hn4AV+Oe/wBetN2jeiHCjHzPjBXtj60WC48hVk2qdihsNj7oH/68/lSqNhKj5AzchenqM/X1qMYDK0ispJJYKScZ/oTS+WOCyJgEqS3p2BPpn9aLDJQoG/Dn7uOeM44z+VMQoxZSQGJ2nDcg9hnp609I8plgWJHXrtPvSIMMxUMTnDfLj/IBFIY5GjDFs7UJB3E8n2wakMbpwSQSOQORn2B6GiOPK/MylSCQAM578e9OxuOecjvycHHTJ6mkMgmJiyzRkIAASD19vpTGOzkHcy8hUX1HU+tTiMkDK9+d2MfUEe9RqWVNu12A6k88+nPrQAqgqDLgktnB2/lkUYlQRrHGd3O48AA+/HQ/4VBczCG1eRW/eMQOvdjgZqZtuCiEZVcEDH4ZpD6Eo2xqFVR1LKFyMjI4/PFNPG4KpOBux1IP/wCqmYxGc4En8RXgAjqaDIrSgux4Y44yeR1Pp+FMLnJKVVGU4ERPzMOVz0Ge/enGaGJAg2JEseCOioB1yemeajWQGU45GApcH5hkdxjgYGAfepBKwCbVPztwFUp17tt/AGmUEUkckhJWIsnyOCSVB49s++fWpEcqC79iTIw6jJ45xkgEgemKreZ+5R2YlfLOQiH5ueMZ9R29RVmJkKspGxzk5YYAwO+OMH/ChiMzX9UksLONYVaSWbCARttCKfvNn04Az168VhwJHJIY5G+QHzWZuuMcj+X50X969ytx5oGRKVVl/ujp/WqXnLHbrnmRz0B/hH/1/wCVeVXquT0PaoUlTp26sku3VnM7uvdiuM/5ArvNFJg0GxWRkyw3Fl+XI+9wOxwetcDaRC9vVtEhaQysEbnIB7nPoBzXoqLsUYtt6oFBRRgfhk8cfSuvCx0ucuPlaKiTGVZEKO0fQAqQQTnkbhj5se1T7kmEgLfOch1Jxz1JNVBEVTYru+ScMytJnPOOT26cdB0p6oHdVALL0zjJGOMHJ7/05rrPMLQKrwwYKxAAHPfj8Ov0qQSSYwpQ7G3BuMLx1B57fzqqjZAyWG0E/Lnk+mP5EUskttZAiWRIEByUL7ccHNDaW4JX2LW7LlpQMMT7HPHOR+VRqQJQwGCB989R04PuPWsmXxPpCZDzEYwVIRh1/nVK68caJbQLmSeYy5wgTB/I85/nUe0h3NFh6stos6kRmNpGKsBnqBntg1C80flgqdpkXBZCfyGeuPT6Vzuh+J31/UGt7fTJowAGmneYJtHOAwAxk+nXFdE7lNzs5jC8v328Yz154H0q4tSV0RUpypu0tGIzlDHFtddwyAGyMdcnP48dqkjXaDhNq7WORj5fYegqEPtJJdWbBDOOAF74prfM+PlYYO7d1ZD3B7gYFOxBaUFoVZl3kY3qvYY7j+tR4EatuYAfLtV2B3c9c++RzVePzLpCYW8mNeVlKctgYyo/x60y2uP9LlhhZ3cQK5MhBJJbjj8OfegRocqXYnhjgjP3j7+x9fanL8rMAmFZgWyxIyR/jUMQjJ3pIsibNuVPUZJ4H1B9+KDIHZJNpyGIck8oMZOf0H5UDuTnIiUbVzgNtDjkgnv+PpR5hbdlMFTuIxzgccce1RRHDEKQCoGFyDlfcD+tCSbQHVW2k5JK5JHbk+mDQMtoCCVyu3ORt6YHT/PtTt4Zs9VA4wc884qqjCRtxYqMkZPHX1xUwkcs2EKnJABPAH1/X8aVhku4+Xu8vJ7gH8O1RZVjvcfxcbhyCfT/ABqLeWyrBVb5ckj+ncUkjxfIpZNpPyt69hikMyfEV15DWVuCVzKJX5ydq1vMWfLKT2Yc8ADnNcLqd3/aN7ezJgCJPKjb15xn+ddhYN9qsYHYhgIxnnGeMH/9VYQnzTaOqvS5KcSdvncgxs3ORnv/AI0CRXlGQcgA4PGR6imBwZPIKbQSNpfABGPbvxTEdCrKuMoSuBnAPcNke/61ucqOeSEeYqKykIRgEKCpPHQ9B2pH2odrEeYx3AsAGXOBu6jgf1qWEMYlMhVpFY7mdOQCPl9fTtTikueVUMMZYOcZ6Zwfbn+dMoheP9+XKpvByO+BgdR6e/09azNdWT+y3hRhHPIPvJnjHORnkHoMVr7E2YlnlZY85K5U5GBlsDnn6Vy3iaeSbVGt4mKiCIscc5zjOfcYFYYifLTZvho81VGEqvMVgUeW0pydx4B759O9OuZY4mLsyGNQFjHOCB0z/P8AGlhiMUck5yS2Y0yfX7x/Lj8avaHpU2p3peQeXbx/eLcb/Yf415dOLqT0PXnOMfelsaPhK3N1cS6kzu0camFFRBhH7n06cfjXVJuYRsqBgfRR6HOOzc8Y7ZpYraCBFjjgVVRf3cSjAHfjGM5wazNa15dOJtog8twY/lU9ASc84PXvj869dctKGp49RyxFX3UaMr29tA000vloSC0rDaAOcYHY849T3rIvvFtjFYztapv2nKu/yKT9BzXMXWsSzyZZS5A5eTpGfQCqS3kEEhmJ3ygA4PQH2HYd65Z4pv4Tto4CKV6mprv4n1S4K7n+yxHO6HbsOPXI5H0rBmuGL/umYqW6yOWb8D6UoF3qAMqZWMk/vX5z9B3/AJe9TkxWce0IM/xO5+Y/iOg+n51yurKb01O2MIQ0irEcmnqEDSzfP1b5ssPT6fjS6NpH9q6l9gsWS0D5MsxiLyAD09/0qnEP7WvI7O1ilaab/VQhPlB/3vQeteq+H/D8GjW4aeRJ7+VFEkw+Ubf7q+wPr1row9Byd5GOJrqjHfVl3TtMtdG06Gyhjbyo8EszZLMerMfU/wD1qzr3xHpVlcXFtdSXEbQPsYlC2Af6dq3XmEUgVyfMcYCAZZj1z1ri/Gen3aXEGqNGoDkxyjr/ALu4Y7iu6peMbxPJoRjVqctTqdBaa7pN/ta0vY29Uf5Px5q1cxC4EURYIsnzOM9QMcfQnrXkkkf2dmaFwbVzh0PPln6+noa2LLU73TJVljvPOt3iH7p23Dp0x26VhDFX3Oypl2l4M9GnuUhgMrjbGh+f5B1PA298nsKr2EEiwGS4XZK7bpBgEL1wuO+OOe+etZmk6lp2sXKSyGY3acpDK21ATkHb2JOe/oK6Uw3TuCEtyDj5SzZC/X/PWuqMk9UeZOnKDtJESoysVkVsZ4YqMk/SnKXBJJ3AcgkE4J6jFCMS5DoUY5XIJI/A1IHK/KiZPJIU4+bHaqJGCPCAAZG3HysenX8f/rUNw+4QsX4yMd/r9P8APNOURSYzk5wyqeMZ9u+KXAYsXBKZBAwOnp160gQqgMu7+IH7wxyfQ/hTwgO7YcyEAMSvSmBN/Hm7QSCWGO3PPqe1SMFwoUBohkkcknPPP+FICM/Mn3n3YB9wvTIOPrVLVbr7LYzvkKzfu4/qe/tV6TAlCRuxGC3C53H8/TjFct4gl2SRW0I2wxLuK7s4J+tZ1ZcsWzow8OeokY4haOzm7fvFBx16E103hi4W40lkjDFbeYqVY4Ocgjn/ACK58lV0vnJ/e5I/CtDwrdq0l1aRxFiE8wMRxu9/XHFcNCXvno4tc1J+R07wuRsCAsNytkEK+ecn0/ClYlicltzZCqT7dvU9TSOREsjHAVwC+5sKpAwcg9aepiLtjgMMKQePXg16J5FzDiZsAPGYRG2CAMjkDkZ98jPtT9zct9mkHXvuBI7kDqeD+YqKKTIUbXK5VWDMQI1xxuzyPanMPPUByzo3ybwzZY9OQPx57Y96ZTEV0R/kQrEVHAbDjHTjJIGMivPZb2W6nkkCnzppCFGOQGPQH8q7jV51sdKvJym5kiYgBRlz0Uj864m2YtCJpBl0XyoiRjBxyTjrgcfj7V5+Onokj0MDHRy+RasIFv7+3s7cny0+V5V5bYM7mHXGT/MV38FtHaWohiO1EAxg9c+nc1geF7DybA3kqxxs4+Q5A2R9vwJGfoKra7rjMTFaf8ezdX7SEf3R2X36mtKSjQpJvcmvzV6ns4bIl13xD5BktLHEu4nfPknbzyFI4z79q5IzPbq77BGz85LElFPXr3NM+1PJfpDbp57EglV6IBzyegHvUi6aJwZtSmEu85McZIQH69W/DArjq13NndRoxoqyKUc0940kVhFujQktNJwgP19far1tZQ2kZa4kW4kOMs6dO+Ap/mfyqw13tRI7Y7AowCY8Kv8AwHpg+tZ92sKkTXl1JanjMZACuPbP+NZqDl8RvrLRE095cFpBbkGUdFwd5H0pumxy6rqS2K2Vyt4W/eFRlEH94noBWro/h2TXNxhuLqC2Q58/g7iPQevTmvRLOxt7K18q1jCEn5yqr8x9WJ5J4ruo4fmV3ojkxGLhSXLHVkGkaRBpFqMuryMP39wV27iMn8PpWi87IvmsA8YwAVTJz24HPNJtbezJucH5eAME/wCT6VDIxae2hK4+ZpchMrx0Un0PPUdq70ktEeNKcptykya0T5jO4BeTlnc4Geygegzx6c9ao63YnWdGurNC0crxZjJ+bY46cjjqKv7dzR9WEm1SxBfHBOQc/qKNmGDFGjAy2CeAen44ptXVmKLcZJo8XtLuQx7Z42EygpIsy7QwzjaRS3Ef2do2Qk2zDCMfvKf7h9x/KtrxXon2LxBJMSvk3X72JScYb+ID+f41Qit5GiaOWMvFJwwDDP1+orx60XCTsfR05qcFNdSNJ50jjCp5iNyqk9T7V1WjeL7pR5V/GXgUf65T80fuw7iuGuY59Pl8nf5kRGVkQ4DIPT3oNxIIZSnzbkxgDB5qqdZrYdShCqrSPaJtRt47RrmSZDbYz5m7Kgd+R1+lSWks0qtLLG8QyQmfvsB0J9PYfnXkeg6zPpzCVWM1urhpEcZBb2HY+9eqaVrNpqcBkt2+YDMkZGGXPtXoU6ymeLicJKi+6L7sBGGwCp5GRjAppG5QxxkDK5GTt64HrSbtq4GM7eW7EdBk0xDKjhSZCMFSmBk57+3I7etanGTYTbuICKO+eP8AJGfxpZAOcuWAAO0A8Y6H8vSokKsvTJdRw3QgdDg8VKyyEAHaSmSO3J7E9V5oAc0uFZnWPygOABzgda85urn7ZfT3Rwysx5z0HpXXeI7r7Jo04wqSS4i465PX+tcFIVghHl4XnDLnv61xYqdlY9TAU9HI02lQaavPHmkkH/dpml6uttq9hnaPOmEYjXkkN6j071kvOwsIScEtMwwO/Aoit3huhPCV+2ZAjDHhO/NcVN63O6dPmi0erFQ8kquMDjaeoI54I7fh/SnSRtJvRdiIycEk8nPHv+NRxTCeMSIGPmIGDHoOBkdakDAsuAoZQCxP+FeundHz70djAjEQCrHIFyjf6uMZYdDz3AqdkR8BircFyGOCOOuR05waYm9fLUs28E8A7sqBnPr+ZqSSMkqnyleWX5BhSenfg/4VRRyniG7e7mt7JEXao53NkAkZyfYDmstTb74oipW1XC8Hadnf8T/WoNSv8TXV1IyO1zMwUZwNoODj6nA/A1V8uaTAlZ4gxysfVsHvjt9TivCqVXKq5HsUYKMEjX1bXZLhYYIlUQKNqW0WT+nftWdHaXN1tW4kbP8AFFGeR9T0H0GT9KnhSOEbURVyMcHJb6t1/AYFXLbR72/kULcRWkKnlyQW9gq8c1Sc6rsy1yU46aIgM8Vlb7YdsMagkAdOPX1Puagtmj1tdsUd5M/QNAmM/piustfDmjxbpLy6e9cHbuuJBjOf7gwMfnWlJrej2UYjN1E20ZCQqZAPYKOBXXDCKPxM5pYu+kI3ZyFn4a1i5ZIJbdLWEknzZLomXA/2VJz+JrqLDwxYWxH2thf3CDKmdVwoPQBRx+dMPimxjw0iTxxscjKAYI6ck8UHxXpqjDGWLeR8oXofXr06cCuiCox2M5yxM9LNeh0OAgSMMEUptCgYXnpxjihGUbWCqpYbiTjcVBxg+oHNZEXiTSZpWi89wGBU7o2RW9DmtiAw3FuzQTpPE2c7GyMn17/4V0KSezOKdOcdZIGCSNliAfuMWAz9c49/1phOLtOCXMZyAxORnHTv+PvTyS/DB1JOMNwNpx055x39zTGRvMimC79xwzqBknHA59OaozLB2IkbLDjYcKVO0H047jrx7VAcLvTOG3EYwAfUH2qfy0VcBQdpPKjkd+/1puwDPmEyJtJOCB6du9MLnOeNNMi1LRGeSLzXt28zYW7dyD+tedRKsBxGUZccEHkD+teyGJZmkRiSky7WxwMdMc968ivLKKz1Ka0miQTxOVGOMjsT9RXDi4dUevl9W8XDsSzRxXlr5FwDGpORJ/zzf+8MdvX2rJH+jyS2lzGYp92S2QcjsR6561pxXMYYLGo9GVh39qL21Go26qOLmPIt26fWM+3pXlu8Xc74uz1MtY1jcS5bYwwWfsf6Vq2eoXenutzbTBJUIxxnKnqPpWPZzMymNiykHDB1zzV9VWWCVYwqMIzhlY4rWFTqi5pPSR6rpOqwatZLPtCOv+siPUe/071eV2O4Nu+Uk5B9cY7eufyryfStSn0nUorwOxiZdpB7juD/AEr02xvbfUrKC5tX3rIQcEZZSDXqUaqmrHhYzCujK62ZeVAzbQPlI+ZScg9sH25p8TlyNirnI5HBX1/DNMV8OHIOQxIJIJqTcWYk4EnLKGOcgc9egHWtzjOQ8bTlpLK3ePcu5ndg2MHoK5VEQEo7FiBgHqa6Dxa7zauYEdVj8tMHHKnnr7c1g+U0OMuRIrYkXPX3BrysVK8z3cKuWkhLmAR2tpjlsyHcO3IplpKVTc64JOMnt7VanTFlZhtxz5gBH1FRLpiXMokLMsEalfQsxH61zQ2N07noOgXKXWgQPCy8B4yexIOOR9K0k8sr5aKVXdtVWBBXjPtx1wa5/wAKQR22irawE4WZt+4+vPH6V0Ecankk4Hy8tkgcf4D3r2KLvBHg11y1ZLzOdNxbWuWe4hAYYIbAz6Zwc8cDBpr6hHNBi282Q4OPKj3YPPGT161III4Dsgit4gwPzxLkj6+oz361Jv3OnMivzwWyD1xjjjn17USjOSte3yK5qa2V/n/kcDqMH2a+WWANArjYsj2zEpg8qv8ACpySSeSc8VGsUixFY5EJPJLBwW9ySOT9a9BcxmNklA2pnO5dxPYE59yM49aqmys5JDE9ugkU5fyxtwT6YPI9M1w/2fyr3ZfedX11N6o4V4r9MeWEdQOSZMEn8aZ5+qgFRZYBPKpIh4/OuwuvCrSbGttVmtnAyyyIrrz0z0NZlzpmtWiDzbQXoQY326/eH+63I/Ws3hasNTohiactLmAJdTDcaddo2eD5Oc/iP51DLfmAc206HOS21uR3xkdK2IpYronyozFOg2tDMmxjj2pPt0lvIGMdwsfcxOSPTsazftNjpUuxjLqVqBzFvUHG6Qk59ttX0v4RGI0jiZsYLheB7CrB1BWl8slpDn5WZVJI9ckVGVsWkX/RrdkPzEGNc4/DFK8zRMaZQ6qZZzsPTBwfw/xoivJEZUSRVYH5SXIIPrkVJNbW2V8y3Tbj5GRmAYeowaiGnWUisY5JEJ4+WQH9GH9auM5LoCkup02neMXtUjjvlFxEDhpBgMvoc9+K6m2vrTV7MyWciTKDuXn5lb3U+1eZGwngIEN0jZ5Hmx/yIyKfaNf2FytzChEq8rJBIGA/D/EV2UsS1ozjrYKnUV4aM9ZgaRk+bAUkkk/LkY7g96g3bgJHG5mALlVwOvAzjnvWL4f8QxahIsUoVbkDkdd2PbrnviugJZkXYE3FlLAfdx/9f9K7oyUldHj1Kcqb5ZIhG0SEsZPkBGZO46g49f8ACuS8b6MbnytQt0JdCElTAG8djnqMdK7CUyqrHLP8pxghfwx3x7morm3M8EySxB4Jf3RTO046Hr6cn8qU4c0Wi6FV0pqSPKXt2Qhvs7My9QVGcVJFMQdjxoN33eOau3lrdaZezac9wrgcxMRklOxJ7j+VUPs88Sc26s4Ocx84/qK8WrFxdme9zqSuiDVbWSTdfQ7xcKP9IUfxr2f+h/OoLG9DW0uVQjgcY4rWtY3dVYOkMg6GZvzBHcVmalpsdgyzWgLQySHIb+Fv7v0Hb2rmvysIvow/eI4MbAx7gGXGQM9/auq0G/k0y6UowNvIQXUe3ce9cvbyB4JUDqG2gBT39sVYg1ZIY5FXau1cn1UjvXRTquLuh1YqpHlaPXY5lk2yBlKuud6jJI9KkYlLUsV5UnPHPrjjvXL+EdQEvnWqyEqV8wK/OP72PY5rpFVhKDtwCuMFSM+uDXsUp88bnz1Wm6c3E4DxGMeKbiYsVRkTYMZ/h4FVxD521lOWAzs9R/8AWqzr8Lz+KJ5YmI4TKZwCMVX/AIspLubqMcA49PSvLxXxs9qn/Cj6C3R8vTrTax3l3AH5VVuJ5CFhSXyUAxuxnnua0ZZpJtLiLKhcSuu7GD0GaxXUq/lgZlchVc9APSueG1zSB1/gyA2mn3bC5FxLLKJi/oTx+GMV06JH8q4ZlYkZBPJHr7e9cn4M8lH1BoismSgKowO0c/r3rreNxxtXauQQ3O4nkew6fWvXw/8ADR42L/jMxWYkpG5w33A69OPr27YpkrRksJSpjLYLbgD82OvI46fXFKCsW8jbsYn5UPOc/nnGKaUwu1SRjJ4UEDv07n2HTFdBiNTDAsXUCFjyV3bRnHXnH4dcVNABIq7uWA6bTt6joOnp3qIu5VcYzwVVmyu4rz1P6djSwymRsxs+NoA/eZGDzg44J96Yi3ABg4SMcEFthGRyf5nNOZtyHKGVwMgggYPsfTioYWlkMR2gqwBHy8KT3znge2DUykkKQkaopZwqNkKQeeemc5/A0wG3mm2erR/6VHHLIFAiYNtfPchuuOnFY134NV5H8jUZosEApIgJU+x4P5g1vs6p87Bzg7io5OG55qRgsZZEZgoO5R12Y469Rn3z3rOVKEt0aQrVIfCziZ/DGrwoVZIrtBxvhkXcc9CVIGKoT6DqUOWOmTfIvzFCN2fXAPI9RXoOzyyzjYN4ztGW6/eH8hQIxJI3DHqA2emT1yO44HX2rF4WB0xx9Vb2OItfDmpM+YNPkgjJBfzpAgHHzHB/Pir8XgqSVXE92qIGwjrkn69q61UkYlA7bQpV8/xHbj1OB71ajG6Egxx4DDIOccD+fbNVHDQRMsdVe2hzEfguxix9ou7slTg4IAPrxyRn/wCvViPwhYkS5ubogHKqCo2/jitz5DJKWVncEBW6gHHYcev6U9niBVuDtXAzyR9MHPatPZQ7GX1qr/MYp8J6fHmUy3TMh3IzSYKMozwQM1elvBakmfKhANshXKnHOQfXHXNXwMrhs9iB+oyevGKrtCmDKHOWKk4IA6cDB6g9auMFHYznUlP4nczpNTM995cMRnzxtSFiTgkkFjhR1HP1qWNNQQh/IQO4UFGl4OOuMDr+lXZOSw+YcZ2/iBnrjHTinFBhUdVXdyMYwGz/AC/HmqMzmtfsW1ewV/IEF2ufs82AwIJPGR69frXBm9u0+dd86o2x2ZQjZHavXtxfKxuqlcAu6ggEDGAM5/CuS8TaLbW7S6rb25ZT/r4l4Tpw5H6E/jXJiaPMro9HBYhRfJLbocnE/n/MY2STOCJFxjNXkjDRvDc/NBIuyUAZ+jA+o/xrMhupTIzIYpLfOPLc/PH7fSr0NykZ2hCQDg7m4FePON9D0peRiy28mn6iLZiAyfxpyHU9G+ladvBHcyGNgrCRGQ8AhuPWrN5Yf2hCqQrtmQE2revrGfY9vesfS74RzSbgyBEJKt2bpj61nB20Y1K6NDSGvbSVHt5ZPNt8Oqk8EDqM+4GK9ZguY5rdbqP7rxblKnOQea8idQzxzR/vCD0Unj/Gu48G34ksJ9LmQqbcb48942PTn0OR+Vepg6lnys8/HU7pTMPxXdGLxJNbSxyKJo1liYLkHjGPqMVTiQSw+ZC6lj9+M9R7j2ra8fRiJ9L1LyTMFkaJgpxgHkf1rn5MCYNGvzEghkPC8dKyxcbVDfDS5qUbGoxB0Vfn4E5578rVK4EVjA005BmZcRg87QfYdzVprlW0Zt6gslwDnpk7T1rMt981yJGYrg5YN3P+e9ccGzZHU+Ao7ZdHuZIYDGzTnzCBySR1Ndcg8uFQVQkZXCjIJ6j1wPzrn/DaqbG8RZQiCUBWj4I4HfBwfwrdX5ZXLSRsAuS+4qR749K9rD/w0eNiXerJnPrI2+Kfz/NR1/d+XtAxtBJU4zk88Zx1ppiBRBvQoFLFAQxUE44I6kEH3+lRqx8pY/LQbtikJLlM/Xk56HHfj0oBEuxFRwPlkO3huD14ODn2rczFkUqhkWP7ylipX5Oowc+vXr14qZQxlYqQihyDgDhQMkfXkHpxUZf5hIoKrJwru25QMZAx/jinxXAbkqpbk5Vhwff36e/WmIslVlhGEVwwIGOrd8dMY45/OppjGDI23dgBinCkqAOPQnPrVeKSUZDMQrMPmQEL1OSRn/8AXzTo5S8Eiw8xhflKjnr6+39KBEsMawKSTsADLnfwQcN1xnBPPPvU24lEDZYAEgbgTkcHHHHQ1XEgli8zyyFBDLhCpJPTnvz9KkkB3qsyEbvnxkdff9DkGmA8EKfNSQ/uzmQhQQR1xyP8KVQjSqxfaCpYAhcc/d47cnNQEtJC8IlIcttDIwV8f72T19cUrSYY5jUDcB5gbdg4457Dj9aQ7FpfP38sMFRzsCkEZ7/Tr/SpwWDRMuAB97LYGOfX+veq2MoqsshAJyCTyeoyM0ssrRxqWnKKPmeSYbc8/qMZ4xzTuSl2JMeXKigORtyq7RjBPByByamiBQOGBYqM/dGf0GM1itrmjQsEa+haRnLYR87ieAcDgcVC/i/QmdYzcGNd20kxsV9xnt9annRqqFR6qLOkkYSKwcsF25JXpwfXt1qt96RnBU7mDEenpgEcDr/SqkPiDR5OI9Ut2YDAyxVj6AnjNOF7bOitFeQnB+Ugqfw6/WnzIh05LdFtTITlcquduSccZx0p6zhSdiFo93zYP3egJJx61Vyrp5gBKseXA7Zxwc+uD+FTKMFAACST5hJOXAHr/M07kNDhHJFuwJCD1DEBeOh49+/sKJdhAjZcl4yArck8889D/Pmgszx4B2sFCrtIIBPBAJ6/lUbKzPGoXgZ2l15BxjjB/wAg0Ajg9f0g6ZKZ3t42tJCAJFADRE/wt2IPY1gpMYrlkuLUorfczyp/GvWXiiuIngdVlVk2ujDKsPTB+tcB4h0q40CZTCgbSHPLOeIT/dPt6H8K87FYf7UT1cLieb3JblSCRJyYDLhs/KVJ3f5FVdbtC0BvlhC3EbgXmzgPnhZfoeh9DUkw+0KJ9PjZioyYxwxH9akt74yxqzW48wAq0TZ/eKfvIf6ehxXlzj1OzbUzLYb44pYGmIc/MoOM475roNLuJNO1Wxu23CPcYZSW4CMev4HFc/JAumXHlpM7Wkqh4WP8SH29Qcg/StSNlbTU3KGUsykKeo9cVVGraVyKnvRs+p2XjO0Sbw9OrqcRMHLBu2cZ+veuKS1drUEPC/G0+XIOa7W2nGqeFLmKYgzRwFZQR97jhvxx/OuAhCpEQ6BcE8BTk5ruxj5kpI58HdRcX0ZM0p/siYSE5F0ilSf9k021YmVZiEwvQjkAU+ctJo7B0AdLmPPt8pqoClnYm9ukfysDCRjkLnrjuK82nLWx19DvfA8Tf2TOWlJmmnZ2UdhgYB/CulCo5LM4XYAzArhgD2z2NYfhW2kh8PxvMCstwPOZWAJQN91cfStsNEd5XYJFXDEDdls8EivfoK0EjxKz5qjZyXCx5llii8wkBMjcjYXkc9iOnYnrU/7tEUho1XJKJsyEI6kDp0PPbmqqPJbuqLubH3SRt/BTg5PPXj6HGaA7RlN+zjADBsZbgE4PXcCBz6e4rYTLjJGoZ5F/f8jepUEqT16YyOOD1IpkQjJaXcvmDKpJ8p9T9Dz7cVTBAj2g7jEpREjdjuwSQDnnPBHJ7fhUyMWhkYFjl9/zNkAkcgDjpxjOOtBJpJvCLu8xGfBYqFJIOf4T6ZoZHLl4XMkiEAfd24x0557Hv36VDFIoBUyvG5QAkgsWIH1yOuPX602K4QhWKqn3VJyc7yMcH09qALCNGroHwzAZRpOd2Se4GOOuPxqVCglkC+WrbgzoijI4zjBHp781XjCwyMo5cgKg6g4PAz7E9O9OYBbYx7NudzkE4I3ZOTnOO/TPNFwsTq8h2+aflyM55IJHBzt55HfFVb6G+kSQWlwp28FCigfmePSpZDIAifwsoB5ztIyc89u2fpSC5HmsEaMIwMgBcNlem49Ohx+PWlJXVhxfK7nJ3V5qwEkNxq09rKThVaIYJ+q1hjTtYlkLrqcF8c8q8p3EfRq9Hura21GEQ3sSvG2SDjGCBk7T9Oa4/WPDt5p482zlS509uM7cyIM/xY6j3rlqQqRV0z1sNiKb92yTMWS3v7RstaTRL0JWPIP41E+qQcSI8cbsdjKR1I9qu22pS2YHlXM49CjfL+VSy6lZ3iCO/s7O85zvdNj/APfS1x+0lfU7k2t0VI2LOZw8eAMtGV6+9W0usJhOWPTI5I/wqN9I0yRd1vc3unu2dnmjzU59+uPwqp/ZmsWgMgC3sKgky2rZJHuOtT7XuNNSNSKa8hfOn3clpPnlN52E/j0rXsPG2pRzNBqCRSlCVI+4w/HvXGQajCxKu0iydAucH8QeavmaC7jUkkXEK5BIwZE7qf5itY12upnOjTnpOJ6hp+vWN1Gw3/Z2A+42FxnuD/nmr0pDLuC7uPvYyHwD+nt715Kl8AYzFtUtyQTwR75q9a6tc2ksa2N1JGJesJOUB9ADXRDFLaRwVcvV/cZ6OsjPbxMJBhzxtQ4yOuM9Op6+lJKIbmF4J4hJE37swSL2zjB5Pr1rnLDxTPkjUII2/wCm0QyCOfvDt610FnLb3ltHNZy7ogoAG77rD0HaumNSM9jz6lCdLc89v/Dc3h/US+nzsNKlJMYbJ8tu6Z64z0phvEbYLlSSWwHUYOfY969HuI45oHSbbNHLwyNxyTwB7/4VwGt+H7rRnN9aTPNYN/rElGSg+vb61w4nDfaid1DE865Z7kVxYpd28lq13F5czAwSkcxynsf9luh96xLS4ls7p4ZgB5TeX5Z4K47VpBS8Rwh+zyjaUUck/XtVfU4mvIDdRn/SoAq3GR/rE/hk/ofevIknHY7IroaOnal/Z8rE7jHcIU2k8FT6/jVSRII8gtI6sdymLn5feqUFwZl+fJGc7VPT6e1WredbuBo3VYNp3Aop4X0/OtFVc1YSjZ3RYtkj/su5E5bYJ43UL/H14zRJi+vreFSyb5lXJ6ewAHbtUignTLxT0QxsuP8AexUmiWj3Gt2M3mKFjmHy4yG68CigvesKbtFs9JikMmQFIXbt2nPAHfHr/Sho0aVQYQSAMsOCCP58UfdEu1WG1u2OcjOaIysSEIxIwTtPzOSfTPUZ/SvolseEcJBKE8sMGiL7jGqbsuO/X049APXtVhp48ECPMfJ8pwGLAgZAwck9DzVe3ILOcMvXegckgbsg46Zz/jzQgaSKOFXkYFhvljfdNuBB4GMEY+8eCPTFM2JIHQR7XlDgHZhRwSADgYGMdOp46VMEZnKtneB5bqo2hcDdye+eenTv2pABMrPcKQ38Xm5YhQAehGG7H+tPTKO6mOSQlGdmXC+XliCCDwORn8D7CgmxaVpGmIVI/IA3EbsAse+08jv7dKJFlZHlBSJ+T5Yk8slB2I5/lgj606BkkRNrmRwoBlVAdx/xx79zTZWdIgWBZt4bJQuSDj5T/d/UUCJGJmZmKkx9RIjBcYOQenQ4xUoeIyx/6ry1+6iZyVHzZ9AO/rUUbLgwqGDZAXKluR179ec+lJvCF/NcsYVzHiNQxJ5x1wTjPB7UwsSK42hvLUhl+UhtvHqcjPoAD2pVZyeXmVdqrsbaPXd9B0PWmqrSFwwdEYlDuUsMDsB3Bx070kkOInBVwuxVyeBnnB5II5HT370CJlIwrCVhECZAVbG31BXGfx96sK21CCCY1+8pOcevbJFV4g/lBR8xVflJbJBx1J/Hk1IFYJuIcuSDksRwBjjrx1oEYV94Vs5ZmubOVYQ3Igx8hz9Olc1ci4sZXS6sli2f8tSoCkexr0V3CA/IxchW+4SCPb165NIYBLF5UkaSRknPmLkYH6f/AKqwnQjLY7aONnDSWqPLWu1LGWMttzgkn73+FXbe4ucrcLJ5YH/LXO0/QY610974Qhf95Y3P2dt25oT8yH1x3FcpqGjanBcyS3FsUjQZDn5lPsCOlcdSi0epTr0quzLt1PZ6kqreafBdoOBK42S59dwpkOiW32iM299JER8vl3XIxjoGH9ayop+S/nICeflPK/gatQyuScMcdS7dD/8AX9q5JRtsaONtijcx3+kny76xwp+VZCMg89Q3Sr0Aivbdk5VwN4JOelaNrqYVPJgJSJuSkoyr/VTUbabp0jmSNJLKUg/PAd0RJHdeoH0qHKS3E5PqJBM4AjQBwOdwbkj3qxaXdzpsjT6cd6MPmgfnPsQP51hyadq+nRmZoRdW6jAuLQ7gvuR1FQQ3rLNHNbzFJQxO4d/UMO1XGs4u6JlBSVnqj1nS9ag1JPlMkc6rlrc4J+o7kfSrgZmRojEJxICSCc/L3BB/T6V5el9cwTxkrvjHzCRHAbB7jvXV6V4jEgVJgWjC/wCsAzx6Ef4V6VHFRnpI8uvg3F3hsYutabceHrsBT/xLJX2xyE827H/lmx/unse3Q1VMiROl1DKJZYsq8YX5ZFPDIT3z/PFegvDY6zYSQGSKe2lBDBDkEEd/QivNZrV9L1G4sZTsETYB28N9PwOfxrix1FR9+OxrhqrkuWW6KUsRsL0S2wEkNwN0DMOGQ+o9R0+tT2k0ZuFWS4AU/wDLNgePbinXMHm2/wBlDsfmMtuMd/4k+h6j3HvWZDJIFZ4wnHTJxuPsD3rzLtPQ7NDpUDRWt9BJtQGEMPQAMP8AGrfhudZNbtbVUCeXmRe5IA6msy3Yz28/zIWe2cH5wc4Gf6Vo+DYXTWHk8klzbFUIbryM/pmurC+9USMqrXspM7wFZN22PKsdrL6H/CnK7zThBvY4IBOdoI9SPumosObo5jYhnB3Ag47cDg9OeaVFcAGGHIBwGzwv4EjPpj6V9AeMcEJBFuWZWHluVLSL1PBGQOeRgg8YyPQ1Jv8AtA82SORiY+FQB1UHPzBwevUHHSm2+4kB1dldTIJXOec4IBzxn06nB+tRQpbtIzrBwVWJGRSiqTk7VJPGfTHr1OKZobcCpsiBebAIKzIcbuTkEg9Pr1xUDRxyW7ea5aPl0aTjbj3YdQBnOMfnUEcm2OISESF1DSOgMiIvQHeBj8Opp4ZYw25XkZA/mFUyGJPI5JI6g4oEXnffukDSDEY3HZhcBskY/Hr9KerhyXl85gUwQoK7h6jHRskcf0qvGgCGRpcYOXYAJnsMjOB1PGKRIVIQKkqDzMOMZxtJyck8jHagRbYlWLIqYGCzZ6MewB69D64xjvUrny3WXaMBj688cA47Z6Z7mqltIqLE4VlRRvQZwwAOeScnBJz+Qp7AKFHmbeCTuLFtuexzgY6H04oCxOvliQCRFVWQIBls7T2HuD3p6EYyhXocFNpKHjjp145FU1L8KzeYNhQjnI5PPOAP4cd88+lWtzRKycr04LHdnuT2/H60xE6uowoPBJ27jkhfQjGc9qsRKCCABtywAJ7Hp9M/0qmiuwQkbMJlwwGd2M/mP8mpI9+BkkDjBZCMYPXJPHP86BEqnftOGXGQMZwOfbpmnxAoqlymZGbJXo4zwKgeQrKMuVDdAqnDZI7dwcUqPk5aPy3Jwwz7+/t/OgLFtt4hIUksB1HJ49D+dRqygMHGVGeg3HHXkd/5015GxnLPKSAQMHBz7+2KrtKJRgbhzv3bQfYcHoec4PXmla4Iq3+g2F5udEEE/JDomQfwxWDc+HdSjVj/AMfaDlRHwc9utdWHEarI2flywXJAPYYx9B1GKkidCWVcnywCQWzx03YHbg1jPDwkdNPFVYaXueeCxv4jtmh+yDsLgbTz7nrUiW9zGN5KBScExnd+lejtLFdKvmQiRHUnD/Mp7gqehrC1DwtFd4e2lktZCSCin5PoR/ga5p4N9Dsp46Mvj0OahnW0nEsMssc395Tt/Md6S4htdRjLalbJLKfu3Nswil+pA4anXWi3NhAGkhMsfI82Jt6n/Cs9rUM4eI7xtwSTgA1wzpOL1R1KUZaxY5/Ds5gVtOuhdlCcxMPLmVfoeG/CsxDJa3CwMZracHmKcFVOa0I4tQifH2gSL/DHuz+TVYe/1GUiG5jiuIMYMV0u5R9G6g1jyuOxXM9mEF3JFKSWXevQodpH+NTXWpSX5X7UIlkQfJOATu9mH9az2s9OmcGF59NmHSOU+bCfoRyKV7fUbaFjJGk8QwRNB86/pyKmpOTjZszcVuhZyzho5ZCJT86Mo9OQazbwgql4kQAclJV7JJ3/AAPUVKt0jnZlnjySRjlT6inMEiDecTJZzgJMy9QOzAf3lPP51zx3syVpuT6I6tJhfLAKODsGMfIe1anh6/WwmS6VWKoNmM/ezxgfnXP6X51lrL2szB5FjkYEdGXYSGHsRVnwuzalrdhYg8LIJpQOgC8itqUJRqJruKaXK7nrMmzzNzqeB/eOJAOMEf41IGY7FZs7ELMz/NjjAP14pJHjwqR4bc4BDN8vrgn8KBOvk/eA56jkFsjn+lfTLY8ax50m2OMCWVWbPyscZTDbcjOcde3JNTSSeaoV5WaNdmJycKw3HcAOoyB1HTPWs8zSRoI4o5XmCKvyo3znHUk9uTww96t4DXTIrXIYSMP7owSR1PYdsYpmhOI5VhkcBlBwVjBRQSxGSNvJB98ZzShY/MWKTyynmM3mbdoTBBwAB36enBpjSbbd2TarAhTIWAaL+8xPbg449c96cJXYtHJKUSRGymQoyMFeR947eSDwQMDrTEX1nOGL8ruMb4YYbqBu479PX8KcJEKI+yN9uNoZcOwHAxz2GRzwTVRWwGk3mRCWO1VO4MpyuBk447Htg8dKe8kYSWEvJGGdVV1QMFyP4RnHfPtzSBotBHwoJG0BcqT930IX+HIHTpkDPrUjqhuHO0CUsACOcgZBznoOe/TNVUDSsvmCTa2WIjQMFII46cdOxz9aspLKxVXjcA7i+GX58Ag8E8HgEZ/HFAiRUkdR85beDwXBQ+uemO1SxZRUlVJNuCwbggdjlj7E846YqCJUE7SGFiwG3jg7eWzk/lTw+6KUBpPKIHmBW2tHx8xz1JyTxj6UCLMalo1KRmNEYIVUgbeeevuB+B4qwqFoQF3DeVJct8wxyQSOAD6jNVQXUtIId0qjcQckpxnH6cY9akWNclY1ZDg5GWU9jxz06nj+eaYrCNJtV9pYsU2q7EHOemCOvGMZqRdi88qobcc8ADsc9+O39ajkZllUlUUluIh8hIx27YyBjOKk2MCit5sTA7SgYDDEEYPJz1zge30oAmJIiyU6dCc8gkfjURJbL4whUspLY29P0P0zxQ2I9gOELJjKsN3HJJ/H9aYm6GHfveRlDYkQDOehODz17CgCRU3OskfyqGyijgbuSSeOfftzUsW8B3EbK6bW4Ofm7+4HI49R0qJiGVSJgrlVG1iCWA6Ee/v7mlWTdbktauUj+UICrEgHggdTn35wM0AXhIdi7kyjHGFzhjjOM46c9agacxjc0jNgbcR4XKjkkcHJ56d8U1FKtIoDKFcMyrjoc84GcDHTgdKSbIxEhDkkEhgAVz6Y4xjP559qBCo/lYCMX3jaNzbgDjIH+yMDnIzzUA0+wngV5LOMBxlsHlT3z9KcGTAdmKliZCGcEIx9+3p1qZkbCgFh85MfycEEZxjI98VMoqW5UZSjsZc3hXSn2lLeSMyAMux8Z55x9ByapTeEo38ww6lOB3SSMEHPp0zj2reEWZHmUFZRuC4btgDdjpnr061JnKKA4KH3HXPYn1zWbowfQ1VeoupyQ8IXkMpFvcwODzhgVJ/Oqz6Hq1m++OzJfu1rJg49xXbGVleNZFZcDJf5SB6jBOeeBnFSB23boge2GI+99fpjmsJ4GnItYqfU89mtrjb/AKdpqTqerOhjk/76X+tZvk6c821Lu6sZG+Upcx74m9twr1XeNpwysvbbj6/lzUVxa21zGA8EbgKWbKBufp6Gud5aujNFi+6PP9K0Vp54pHltJfJR4oJ7eTcrRsCNh75B6exrV8E232a6vfs+mSRW6fL50y7ZJmzyfZa6GTw/YTxgfZlhZFwpifbt57ds1Xhe70rKXaG5sD0uEHK/7w7fXpWNPC1KNbnqax/I1nXVWDjHc3FUllwAsbY5XCsDnpSbpELGUlnyBvUZ69cjPA4H41BHNHLD50RjePPDbvX+tMmW2nTyHEcit/Ae5U559SD3r2U01dHnOLi7M81Mk0indlyj4maBwQQBkZZhywwMDpnGelSuWXer+Xscb/lO58qeMgZ54B4Hr17UA8ctuE8qKXepWNc7tvJ5ycbsknI4Ix3q7v8AOZYhEI41ZmG8q6uQBkBjnBzz07/WmXYsPP5V2jOuHfPzgbmYDJ+XbyG5GQe1WYiyhi000e9CHK7SQOqkADqOg/E4qhLKJoU3SIEOwltqgFThcFQfvbhkE56DmrEbKkwQ5jVWO8eXnbhfQt1xjGM+vpTGTrcI+0u/mIWDMkXWVgvBBH3uc+/X0qRZRDEJI3R2y64zsGR98lTzgHsKijll+zDyXEiupRUAOWIGAxGfu56A5Pp1NOgiQqHeMyysAqAAtldxIAI6Dkc9DjmgTLNoIsW42J0xjfnChepx7ADH41YZhGEcBVIZVSN3KEqSepZSe5yCfTkCqkciLGGbzQ5+fKp99iBjGSMNjjAOBVlomdVEjxrMSwwQC2CM8E8+/wCYoFYngziNTI6bRyACc85JB9RyCMY5p6yiOIyscKEDgrJyVyOAOcqPUj9KrQ5eUOjB93PmKpU464IxwP8A61WDsfzZySWyMANyM44b24AIH40hWJTuEbobi4LFvmwSSpI3cY/D/wDVU6zyiF3DB4hlysjcDodwBGF5PIHSqphiVkPzLuYjK5ySMk5JOP4sfT1qwFV1TzSjrtwqq2ADnsPTHb/9VMB0k5n86Nn+beFDBsthsAYB6c5yOc1KOcfITtQvsPsTgdOemcewqnK7SxNveNpYiV3Bs7hg4Iz0+lOt3BjD4woK/u1bcuQBkZznp/LNAWLBeRVKh2ILZIJ++vHb8vyqBJmaNRGzBucASH5R06hSMg96ewIQx7l3Y2kdGU5GTkc555PHUcUnlo21wOOScvnj2/z60BYYHKsNyfLjYsncAYI5P0z6VZjugIljaJnIALMx2k8EAnI78fnVVd5G4lVdQR2VVJHUc47U/azKfuh3Qg56FuOm36k0BYvmV9oRchgWBdlBIbIA+v8ATiopWjaRllAZ1wNpfcDjkEZHbmoZSVTYSp4JGT/+rnOPzqMLIGXYGDnLEZ4GeQBwOOuPX2oFYtLcHzCxCIHx8qt155zxweuR7U8T7dyqmAvDfOcjIzjGPTp+XeqSqUwUjC8H5UxljnPU457896dG25Y2MbsGUEiNV5HTJ55+n/1qAsWzPkEmRVVGC7WdsZJ4/mD9eKkaaPY+9hhSQ/HAGOhyMEd/yqpI6xsuTIDs3YI+UkfpjGOO/XmnNJIJcf3vmUrjacDJ6d+c465NAy6jiQKrFAVbBG4HP+zux06VEhyXliMrEjncGUkgkfl2zj1PNQ7mOVYucgspOMcd8e3HWot64jUIBGcqXVTn2zz7nHegTLizByHaNgoOenGfr6Ag0+R32D94zYbAbbwMnp7/AFqmr53bSq4H97OfT6jrUjZH+qIVslQMDOMDj9KAsWlkcEAlQMkZb246U8MeXOCWIAQDAHrn8Kps2Itp3Z6AEjgeg/Q/nT96shy4PHylj/Tv9aQGfPZ3FpI1xpMflyEbmt2YbZD6D0NWdL1uDU4z8rRXEfElu4wyHuMU9gMsI2IaQ7Q57dwfeqOo6Wl263lpIIb1BlJ1Jw2OzDuuaz5OV3idEaimuWp95//Z;strokeOpacity=100;shadow=0;textShadow=0;imageBorder=none;imageBackground=none;fillStyle=auto;textOpacity=0;fontFamily=宋体;fontSize=20;" parent="1" vertex="1">
          <mxGeometry x="-7104" y="-979.5" width="256" height="256" as="geometry" />
        </mxCell>
        <mxCell id="o14Ys3CnEIRWjD--yxSJ-7" value="" style="ellipse;whiteSpace=wrap;html=1;aspect=fixed;fillColor=#f0a30a;fontColor=#000000;strokeColor=#BD7000;fontFamily=宋体;fontSize=20;" parent="1" vertex="1">
          <mxGeometry x="-6869" y="-851" width="20" height="20" as="geometry" />
        </mxCell>
        <mxCell id="o14Ys3CnEIRWjD--yxSJ-10" value="" style="ellipse;whiteSpace=wrap;html=1;aspect=fixed;fillColor=#76608a;fontColor=#ffffff;strokeColor=#432D57;fontFamily=宋体;fontSize=20;" parent="1" vertex="1">
          <mxGeometry x="-6986" y="-941" width="20" height="20" as="geometry" />
        </mxCell>
        <mxCell id="o14Ys3CnEIRWjD--yxSJ-11" value="" style="ellipse;whiteSpace=wrap;html=1;aspect=fixed;fillColor=#76608a;fontColor=#ffffff;strokeColor=#432D57;fontFamily=宋体;fontSize=20;" parent="1" vertex="1">
          <mxGeometry x="-7069" y="-806" width="20" height="20" as="geometry" />
        </mxCell>
        <mxCell id="o14Ys3CnEIRWjD--yxSJ-12" value="" style="ellipse;whiteSpace=wrap;html=1;aspect=fixed;fillColor=#76608a;fontColor=#ffffff;strokeColor=#432D57;fontFamily=宋体;fontSize=20;" parent="1" vertex="1">
          <mxGeometry x="-7034" y="-771" width="20" height="20" as="geometry" />
        </mxCell>
        <mxCell id="o14Ys3CnEIRWjD--yxSJ-13" value="" style="ellipse;whiteSpace=wrap;html=1;aspect=fixed;fillColor=#76608a;fontColor=#ffffff;strokeColor=#432D57;fontFamily=宋体;fontSize=20;" parent="1" vertex="1">
          <mxGeometry x="-6899" y="-921" width="20" height="20" as="geometry" />
        </mxCell>
        <mxCell id="o14Ys3CnEIRWjD--yxSJ-14" value="" style="ellipse;whiteSpace=wrap;html=1;aspect=fixed;fillColor=#76608a;fontColor=#ffffff;strokeColor=#432D57;fontFamily=宋体;fontSize=20;" parent="1" vertex="1">
          <mxGeometry x="-6966" y="-831" width="20" height="20" as="geometry" />
        </mxCell>
        <mxCell id="o14Ys3CnEIRWjD--yxSJ-15" value="" style="ellipse;whiteSpace=wrap;html=1;aspect=fixed;fillColor=#76608a;fontColor=#ffffff;strokeColor=#432D57;fontFamily=宋体;fontSize=20;" parent="1" vertex="1">
          <mxGeometry x="-6974" y="-756" width="20" height="20" as="geometry" />
        </mxCell>
        <mxCell id="o14Ys3CnEIRWjD--yxSJ-16" value="" style="ellipse;whiteSpace=wrap;html=1;aspect=fixed;fillColor=#76608a;fontColor=#ffffff;strokeColor=#432D57;fontFamily=宋体;fontSize=20;" parent="1" vertex="1">
          <mxGeometry x="-7069" y="-961" width="20" height="20" as="geometry" />
        </mxCell>
        <mxCell id="o14Ys3CnEIRWjD--yxSJ-18" value="" style="ellipse;whiteSpace=wrap;html=1;aspect=fixed;fillColor=#76608a;fontColor=#ffffff;strokeColor=#432D57;fontFamily=宋体;fontSize=20;" parent="1" vertex="1">
          <mxGeometry x="-6924" y="-961" width="20" height="20" as="geometry" />
        </mxCell>
        <mxCell id="o14Ys3CnEIRWjD--yxSJ-21" value="" style="ellipse;whiteSpace=wrap;html=1;aspect=fixed;fillColor=#f0a30a;fontColor=#000000;strokeColor=#BD7000;fontFamily=宋体;fontSize=20;" parent="1" vertex="1">
          <mxGeometry x="-6879" y="-781" width="20" height="20" as="geometry" />
        </mxCell>
        <mxCell id="o14Ys3CnEIRWjD--yxSJ-22" value="" style="ellipse;whiteSpace=wrap;html=1;aspect=fixed;fillColor=#f0a30a;fontColor=#000000;strokeColor=#BD7000;fontFamily=宋体;fontSize=20;" parent="1" vertex="1">
          <mxGeometry x="-6924" y="-846" width="20" height="20" as="geometry" />
        </mxCell>
        <mxCell id="o14Ys3CnEIRWjD--yxSJ-23" value="" style="ellipse;whiteSpace=wrap;html=1;aspect=fixed;fillColor=#f0a30a;fontColor=#000000;strokeColor=#BD7000;fontFamily=宋体;fontSize=20;" parent="1" vertex="1">
          <mxGeometry x="-6944" y="-786" width="20" height="20" as="geometry" />
        </mxCell>
        <mxCell id="o14Ys3CnEIRWjD--yxSJ-24" value="" style="ellipse;whiteSpace=wrap;html=1;aspect=fixed;fillColor=#f0a30a;fontColor=#000000;strokeColor=#BD7000;fontFamily=宋体;fontSize=20;" parent="1" vertex="1">
          <mxGeometry x="-7019" y="-896" width="20" height="20" as="geometry" />
        </mxCell>
        <mxCell id="o14Ys3CnEIRWjD--yxSJ-25" value="" style="ellipse;whiteSpace=wrap;html=1;aspect=fixed;fillColor=#f0a30a;fontColor=#000000;strokeColor=#BD7000;fontFamily=宋体;fontSize=20;" parent="1" vertex="1">
          <mxGeometry x="-7024" y="-851" width="20" height="20" as="geometry" />
        </mxCell>
        <mxCell id="JPZK0ji-hKKs32w-uGpX-1" value="" style="endArrow=classic;startArrow=classic;html=1;rounded=0;entryX=0;entryY=1;entryDx=0;entryDy=0;exitX=1;exitY=0;exitDx=0;exitDy=0;fontFamily=宋体;fontSize=20;" edge="1" parent="1" source="JPZK0ji-hKKs32w-uGpX-8" target="JPZK0ji-hKKs32w-uGpX-6">
          <mxGeometry width="50" height="50" relative="1" as="geometry">
            <mxPoint x="-6732.5" y="-716" as="sourcePoint" />
            <mxPoint x="-6682.5" y="-766" as="targetPoint" />
          </mxGeometry>
        </mxCell>
        <mxCell id="JPZK0ji-hKKs32w-uGpX-3" value="" style="shape=image;verticalLabelPosition=bottom;labelBackgroundColor=default;verticalAlign=top;aspect=fixed;imageAspect=0;image=data:image/jpeg,/9j/4AAQSkZJRgABAQAAAQABAAD/2wBDAAgGBgcGBQgHBwcJCQgKDBQNDAsLDBkSEw8UHRofHh0aHBwgJC4nICIsIxwcKDcpLDAxNDQ0Hyc5PTgyPC4zNDL/2wBDAQkJCQwLDBgNDRgyIRwhMjIyMjIyMjIyMjIyMjIyMjIyMjIyMjIyMjIyMjIyMjIyMjIyMjIyMjIyMjIyMjIyMjL/wAARCAEAAQADASIAAhEBAxEB/8QAHwAAAQUBAQEBAQEAAAAAAAAAAAECAwQFBgcICQoL/8QAtRAAAgEDAwIEAwUFBAQAAAF9AQIDAAQRBRIhMUEGE1FhByJxFDKBkaEII0KxwRVS0fAkM2JyggkKFhcYGRolJicoKSo0NTY3ODk6Q0RFRkdISUpTVFVWV1hZWmNkZWZnaGlqc3R1dnd4eXqDhIWGh4iJipKTlJWWl5iZmqKjpKWmp6ipqrKztLW2t7i5usLDxMXGx8jJytLT1NXW19jZ2uHi4+Tl5ufo6erx8vP09fb3+Pn6/8QAHwEAAwEBAQEBAQEBAQAAAAAAAAECAwQFBgcICQoL/8QAtREAAgECBAQDBAcFBAQAAQJ3AAECAxEEBSExBhJBUQdhcRMiMoEIFEKRobHBCSMzUvAVYnLRChYkNOEl8RcYGRomJygpKjU2Nzg5OkNERUZHSElKU1RVVldYWVpjZGVmZ2hpanN0dXZ3eHl6goOEhYaHiImKkpOUlZaXmJmaoqOkpaanqKmqsrO0tba3uLm6wsPExcbHyMnK0tPU1dbX2Nna4uPk5ebn6Onq8vP09fb3+Pn6/9oADAMBAAIRAxEAPwDr1aPflmyCfnUjAIH6fl3qURDeMNjIC5Pt04z17VWUs+CN6xBlJLZ555BHapAzef5atzu4Yry4HPpzx3rURY3hlY4RQ64354z+frmnpLiRVYHLZwBwOvb16djUJlaNXZi4+X7rncM5yAO2Ov6U3zMPtQF8YJU5wRnGe/OTTGWYWMhyoJJYnczjn8vapRIXTPzLg/7OCPX6YqrFI21lWE4ODhM/KT2H+A9KdvDbVXeu8gAjjIxjoR+ZoAshtoyyjjhVJGM8dOadnIG1mZmyfvgNnPTA9qrhiyGTaRGTnfgggdO2ak3blwU3ODk7DgA9s0AWA/AywGcbTkHnuPSpEaPJG5MEZGRj9R1xVYylU2RmP/aVWwVB7nPH9aesjsQGj3sVIwhyP6CgCxHgEMqncDgHPQdiKk3Kdrl87RgAEHIqDn7gJIXnHHA6Ej1p6swA++FH3ccn/P8AhQIflXbcx5O3jr1PGcdqTAwxG3BwT8w6dxSbR5oCFeABuJ7jpUcTuG3ON+MgYwCecDigCYuoGPLUdid2cfWpcZXOFwoJyQPXoPSo04AYk71GMLwTSs+58YOQRuz2OM/5/GgBxd1GSD5m7qSOc+v40ij7oACnPfjJ/wA9qYZFJKlmbI7oSCPX6+1IJWChskpkYAOPwoAmXLAcct17Hp0FDu23JII/vA556HPtUaSZGRkgfKPpnsDTsFVXaQg7cg7T+NADQrEMm3J6DDA/p2pytySVw3UZPOPf9ab5jBVVdgbkYOeDjOPxpRJv+Yg/MR94AEjH9PwpgSgsxwOT0AJ9fX8KYj+YAyyB1ztz6dvx5pGfdlgBzgbucEfh+NR5V+isFK4wc/r68UASBiUD8rtBO4jBzjp7UgYxjDEHoAAen0OOlBKAgKVJHAOcAd8D8KQFghVWGeitu6n6e9AClCG+bnbhhu4PuBim5YuqHcVyVIX2x144pG2k45cA8gH7uMHOfx/CoixjlA2EBiCGwB2yD+dMCcFmHLAk9OePT/P0oLhQY/Tu2Ouc/wCNRhW+QK0jArg7SMH0GOvrzTVbZC/zFcv/AMtG4f2H+e1ICbzShYqm0EbixGM5PpTi3BPAO3JOPX39KgJTcu31xt4PfkE9uTSqzGRDvzgMMFRyPrQI5lJN7AI53uhVQHBPGM5B6/h65qVo5GiEYbYijjcQ35H8P1qJcqWUqRg7VDA8nPt06n9Kmido5m2BxjBBA5H5cn3qUWOCo23zdo2nfhhkY6EgevOKa2MhCzAIONzAqR6euc1I4ZcKpCKpycNww9CPxNISq8NnGABufJAHOOnNAh4hZmy0Z3/MqF/mHXP6YB604qJPMVtxyDhgwBOOAT9OtNK52hYWRQCPnGOc9f8A9X509lcxFghV+oBBwD0ORigB2w+cpwruFwGJBBHcZz9aeIwd6+WFJyoJOBwfXt/9aosg5DJgsxyMAjaffgjnoKkRmWMEsGYjawB6+/PAoESpI43MwRHI+bPVsY7/AP1qWIq7cjcMfMwwo4zxj8c1BErbQIgxQsvDnGDnPHf1qaNiSM5DYDlc7ueMH6/40ATABYwHI6bQcDOOnH8qeqIjv8ygcBCSOx4GP1qMfKGXDA5GSOlPwyNgIwbO4sp4weowevQCgBcfKQcDnkMMsP8AP9afwTkkYI4BOcY9DTAAybNqZz1BOc9ep9qdGcrk5clwoTHfPf8Az6UCuOYneDydnBzwFyM5Hr6U9Qc5UhN3YnqaZudnAUbWJb5WY8YxxmpGUqwDMCMAnJJzQA0BRGJQGAXBDc59+KR1RdxyvHYHOOOp9Pwo3noQ2/buKEc5z6mhVxgk7TjABbjp/nmmAqhiwDBUKjBAPK+/NO2uWbGMHGCw6de2M0KwdcZJBGOewA6Z70zBO/5flJzkHHbrnIOPegCWSNWjxlSOSAfYfpjn86RsCQhWBL+oPbt0pMnewOVIyBtxluhzSrvyDGrEEHvg4oFccuVbcuJOgwR0Gckj9KEBQ7YyvI+71wfQGmBP3YXDId3BI9R2HrSRxhSwWJdpGPkGCBnoSfzoBCuPk7lmA2tjJ4z2/DFAzkP8xIGRhgCDn6YqVQ43DBLhRw5568HI4/Kh5HztJHAJKYz3xn2x6UFEEsbShQTgow4GPU57e9NG5kYMxcdy3XAHP507G58YQ7lwG24J47Y6/jTScHaGywbI3KAAD6Z65oEPyQqNtcq3I2ZyQR3+nFMSMAKka5K5IUqSeehJojjEr7REAoyCN54Hc49PpSlnVXKhieAGYgAA/j/j1p3ARFkc4JCZBYoDgg55PP4Z/nTgHBztjBz1BwefT2zmmumWXzBnphTz9O/tSvCznBzknLN90/5PHAoA5hS8YVtgYuOcP0PcjHU/SpY0fBEcY8osSjK33QD0I7d+QRUUTOE+QAKTnlsfN6ggfpUrM6xrMyMhbBJUng4xz3/xqShHEIUgsI2YkgH5WJHsD26inecrQpJCEcocbMhevUE84+Uk05gSzLlTnBwGx8ufUfT9KSIyMj7SsagbvvDqfr+WPfFAEo8tdzRMny/KRlRnOMjr1x2/xpwVUiBjQ/dZkyvHP8vpUSMHjZ8ucZ75w2OAMDr9akfMexWRuRjaRgtz6Hj8KBEgIXhlDjG44GfpjHb/AAoVxJcvErkyZXzduOM9OTx07VDd3kdtDJNMoCLhVGCu4n/65/CqXh2c3Md3eNhmnuDxk/KABj61PN73KWoXg5GtE6mMckSE8I3ytyM4x0zjmpAQI1jU7kYlgy7SoXPXt0/oagyxKiJVkbIbbvwWGeSDUq8qd27A6B+AM/5P61djK45OGw0aBSpO7IIHpn06dM8ZqVYlwAPkfdkDIP19uw/yKhLCRy80JcKC4X+Nec9Ohx/Kpg3LJhQMHaVIz9QPT60WFcagXaQByB0k6sTnpxTnd9sKO+Md+G3fQdzxnj8KYN7HbtBh6Kc4BGOenOfb2NMhZItxjiEfAJIHXtnHf6j1pgWkBCgsBjGG4HJz/n8ql3kHnGBkKN2Mn0x2qBnKn90i7ccdQOvAB9KQyDaI9w3N23dvUe1IGycAlcFvMXoVwOT6n36UE9cAcHpj/JFRxuhYf3g2M7ixGO315x7+tNSRSdqFVYLgoXyR3wadhXJFAQYUAALjJP3vc8cc/nmnqzZBIIO3Lbue3AHGRUSqFMW5VbABCleTzxn0/wDrVMDGuzoobGAp5UnuSMg9DRYGx6go67d21csflAJ7HH50/JW2LS4XoSoOQB+AzUSsquFEallblQDke+f1p5aSNlVcc8byOv8AhQFxyM2fM5XCn5VIPtz6/WmgB9wwyY+b5WzjnpyOuRQ4DY27S4XAUt+mPzpoHzbtjBeSSFwMH378cYoHclDLjLnaW5Clfb0qTcd4xkbFJwP4ifbvUapk4D7Ce5BPfv6UjsCC0ifMerLyOnTt2pDuK2TuAYFQOTg5P6cdhgVES5VcOXc42rnByevPY0vKw84VSOCVx9fpQgVUBQHau47DyRnnBzzTATKxtz85U43kHd9R+J96Dghch2yQeBjI54+lO+bhhkDO3j9MHP0pC6LMnA2lvl2tja39Of50h3COMqgKjL7SDkY4B4+lSEKYweQMZxnII9MfrSI0aKG3tjkhl9PoOvNLuRgNzqvGQ+QMDOcZP8qAOTjPOAw+YZyFypGOpP8AjTyEKu7EDGcKQDjjGee2f1pEw7fvMhVAX5cq2T0z/ntzSrGWBy+MAEEtjceuD7UFA5ilKjIcHbtCnIIIzyOnHWmqQu5iXjBJ4IH975R/gaJIzPG2SUDEMHQjec9Dnt9KlVljuVyechQRyw/AdvrQIRCpkjLu8gDZyhUenJ4B71YPPDSDAbceO2ev/wBeooeULgByDyF5x07n8/pXJ6xrL3V9Jax7lgSQsBvJV/U/0/CoqTUEa0aLqysiLU9Rm1CedtoS3gYhBnAGeAT+prpPCxH9jkq2VMj/ADNgrxgHiuQdGjiWJm/1n7xlX9Bz7fzrr/DKLHocQwGDyO2Qw9efbtXNh25ScmduLio0UomyU+UJ5oZB94EAnr+g705QGYqFDbiFxnCr/wDX60TIqjc2zhSh6kY7D3P1qSNsskbSkN0LLnHOB0/ziu6x5QKEjccPgEbXIGAPqecULzIy4RML94Y49SfTt9c0/cUyclyRlt2cZB/Qe3vQ22MtvUNhQdu7+L2x6AkUWJGKimZWXaWPUcg/l7EZpEygbBOdwYlQOvQnP+PapmP7rO/fySHI7YzuApAhV12F9uM8nv8A5Jp2BEcsSn5WwSMblBHzDOcc9MfWlEXmBiWBweSqgkjt+PPT8asADgoxJHAzz/LoQSPXpSxK2WXcYyPxIP8AeOexxn3osO5W8oiMbMB1H/LQBQMemPfJ9qlFv5hU5COVz8uCB69uee/ehHVpBEhUSD5jjI3Z5HQ/XrT3aXYHGWwD94nlgAR07dfzoJHgqpXPVcHkfQnP4/1pp3R5fau0qOQAxb0/zilJjA28hn4AV+Oe/wBetN2jeiHCjHzPjBXtj60WC48hVk2qdihsNj7oH/68/lSqNhKj5AzchenqM/X1qMYDK0ispJJYKScZ/oTS+WOCyJgEqS3p2BPpn9aLDJQoG/Dn7uOeM44z+VMQoxZSQGJ2nDcg9hnp609I8plgWJHXrtPvSIMMxUMTnDfLj/IBFIY5GjDFs7UJB3E8n2wakMbpwSQSOQORn2B6GiOPK/MylSCQAM578e9OxuOecjvycHHTJ6mkMgmJiyzRkIAASD19vpTGOzkHcy8hUX1HU+tTiMkDK9+d2MfUEe9RqWVNu12A6k88+nPrQAqgqDLgktnB2/lkUYlQRrHGd3O48AA+/HQ/4VBczCG1eRW/eMQOvdjgZqZtuCiEZVcEDH4ZpD6Eo2xqFVR1LKFyMjI4/PFNPG4KpOBux1IP/wCqmYxGc4En8RXgAjqaDIrSgux4Y44yeR1Pp+FMLnJKVVGU4ERPzMOVz0Ge/enGaGJAg2JEseCOioB1yemeajWQGU45GApcH5hkdxjgYGAfepBKwCbVPztwFUp17tt/AGmUEUkckhJWIsnyOCSVB49s++fWpEcqC79iTIw6jJ45xkgEgemKreZ+5R2YlfLOQiH5ueMZ9R29RVmJkKspGxzk5YYAwO+OMH/ChiMzX9UksLONYVaSWbCARttCKfvNn04Az168VhwJHJIY5G+QHzWZuuMcj+X50X969ytx5oGRKVVl/ujp/WqXnLHbrnmRz0B/hH/1/wCVeVXquT0PaoUlTp26sku3VnM7uvdiuM/5ArvNFJg0GxWRkyw3Fl+XI+9wOxwetcDaRC9vVtEhaQysEbnIB7nPoBzXoqLsUYtt6oFBRRgfhk8cfSuvCx0ucuPlaKiTGVZEKO0fQAqQQTnkbhj5se1T7kmEgLfOch1Jxz1JNVBEVTYru+ScMytJnPOOT26cdB0p6oHdVALL0zjJGOMHJ7/05rrPMLQKrwwYKxAAHPfj8Ov0qQSSYwpQ7G3BuMLx1B57fzqqjZAyWG0E/Lnk+mP5EUskttZAiWRIEByUL7ccHNDaW4JX2LW7LlpQMMT7HPHOR+VRqQJQwGCB989R04PuPWsmXxPpCZDzEYwVIRh1/nVK68caJbQLmSeYy5wgTB/I85/nUe0h3NFh6stos6kRmNpGKsBnqBntg1C80flgqdpkXBZCfyGeuPT6Vzuh+J31/UGt7fTJowAGmneYJtHOAwAxk+nXFdE7lNzs5jC8v328Yz154H0q4tSV0RUpypu0tGIzlDHFtddwyAGyMdcnP48dqkjXaDhNq7WORj5fYegqEPtJJdWbBDOOAF74prfM+PlYYO7d1ZD3B7gYFOxBaUFoVZl3kY3qvYY7j+tR4EatuYAfLtV2B3c9c++RzVePzLpCYW8mNeVlKctgYyo/x60y2uP9LlhhZ3cQK5MhBJJbjj8OfegRocqXYnhjgjP3j7+x9fanL8rMAmFZgWyxIyR/jUMQjJ3pIsibNuVPUZJ4H1B9+KDIHZJNpyGIck8oMZOf0H5UDuTnIiUbVzgNtDjkgnv+PpR5hbdlMFTuIxzgccce1RRHDEKQCoGFyDlfcD+tCSbQHVW2k5JK5JHbk+mDQMtoCCVyu3ORt6YHT/PtTt4Zs9VA4wc884qqjCRtxYqMkZPHX1xUwkcs2EKnJABPAH1/X8aVhku4+Xu8vJ7gH8O1RZVjvcfxcbhyCfT/ABqLeWyrBVb5ckj+ncUkjxfIpZNpPyt69hikMyfEV15DWVuCVzKJX5ydq1vMWfLKT2Yc8ADnNcLqd3/aN7ezJgCJPKjb15xn+ddhYN9qsYHYhgIxnnGeMH/9VYQnzTaOqvS5KcSdvncgxs3ORnv/AI0CRXlGQcgA4PGR6imBwZPIKbQSNpfABGPbvxTEdCrKuMoSuBnAPcNke/61ucqOeSEeYqKykIRgEKCpPHQ9B2pH2odrEeYx3AsAGXOBu6jgf1qWEMYlMhVpFY7mdOQCPl9fTtTikueVUMMZYOcZ6Zwfbn+dMoheP9+XKpvByO+BgdR6e/09azNdWT+y3hRhHPIPvJnjHORnkHoMVr7E2YlnlZY85K5U5GBlsDnn6Vy3iaeSbVGt4mKiCIscc5zjOfcYFYYifLTZvho81VGEqvMVgUeW0pydx4B759O9OuZY4mLsyGNQFjHOCB0z/P8AGlhiMUck5yS2Y0yfX7x/Lj8avaHpU2p3peQeXbx/eLcb/Yf415dOLqT0PXnOMfelsaPhK3N1cS6kzu0camFFRBhH7n06cfjXVJuYRsqBgfRR6HOOzc8Y7ZpYraCBFjjgVVRf3cSjAHfjGM5wazNa15dOJtog8twY/lU9ASc84PXvj869dctKGp49RyxFX3UaMr29tA000vloSC0rDaAOcYHY849T3rIvvFtjFYztapv2nKu/yKT9BzXMXWsSzyZZS5A5eTpGfQCqS3kEEhmJ3ygA4PQH2HYd65Z4pv4Tto4CKV6mprv4n1S4K7n+yxHO6HbsOPXI5H0rBmuGL/umYqW6yOWb8D6UoF3qAMqZWMk/vX5z9B3/AJe9TkxWce0IM/xO5+Y/iOg+n51yurKb01O2MIQ0irEcmnqEDSzfP1b5ssPT6fjS6NpH9q6l9gsWS0D5MsxiLyAD09/0qnEP7WvI7O1ilaab/VQhPlB/3vQeteq+H/D8GjW4aeRJ7+VFEkw+Ubf7q+wPr1row9Byd5GOJrqjHfVl3TtMtdG06Gyhjbyo8EszZLMerMfU/wD1qzr3xHpVlcXFtdSXEbQPsYlC2Af6dq3XmEUgVyfMcYCAZZj1z1ri/Gen3aXEGqNGoDkxyjr/ALu4Y7iu6peMbxPJoRjVqctTqdBaa7pN/ta0vY29Uf5Px5q1cxC4EURYIsnzOM9QMcfQnrXkkkf2dmaFwbVzh0PPln6+noa2LLU73TJVljvPOt3iH7p23Dp0x26VhDFX3Oypl2l4M9GnuUhgMrjbGh+f5B1PA298nsKr2EEiwGS4XZK7bpBgEL1wuO+OOe+etZmk6lp2sXKSyGY3acpDK21ATkHb2JOe/oK6Uw3TuCEtyDj5SzZC/X/PWuqMk9UeZOnKDtJESoysVkVsZ4YqMk/SnKXBJJ3AcgkE4J6jFCMS5DoUY5XIJI/A1IHK/KiZPJIU4+bHaqJGCPCAAZG3HysenX8f/rUNw+4QsX4yMd/r9P8APNOURSYzk5wyqeMZ9u+KXAYsXBKZBAwOnp160gQqgMu7+IH7wxyfQ/hTwgO7YcyEAMSvSmBN/Hm7QSCWGO3PPqe1SMFwoUBohkkcknPPP+FICM/Mn3n3YB9wvTIOPrVLVbr7LYzvkKzfu4/qe/tV6TAlCRuxGC3C53H8/TjFct4gl2SRW0I2wxLuK7s4J+tZ1ZcsWzow8OeokY4haOzm7fvFBx16E103hi4W40lkjDFbeYqVY4Ocgjn/ACK58lV0vnJ/e5I/CtDwrdq0l1aRxFiE8wMRxu9/XHFcNCXvno4tc1J+R07wuRsCAsNytkEK+ecn0/ClYlicltzZCqT7dvU9TSOREsjHAVwC+5sKpAwcg9aepiLtjgMMKQePXg16J5FzDiZsAPGYRG2CAMjkDkZ98jPtT9zct9mkHXvuBI7kDqeD+YqKKTIUbXK5VWDMQI1xxuzyPanMPPUByzo3ybwzZY9OQPx57Y96ZTEV0R/kQrEVHAbDjHTjJIGMivPZb2W6nkkCnzppCFGOQGPQH8q7jV51sdKvJym5kiYgBRlz0Uj864m2YtCJpBl0XyoiRjBxyTjrgcfj7V5+Onokj0MDHRy+RasIFv7+3s7cny0+V5V5bYM7mHXGT/MV38FtHaWohiO1EAxg9c+nc1geF7DybA3kqxxs4+Q5A2R9vwJGfoKra7rjMTFaf8ezdX7SEf3R2X36mtKSjQpJvcmvzV6ns4bIl13xD5BktLHEu4nfPknbzyFI4z79q5IzPbq77BGz85LElFPXr3NM+1PJfpDbp57EglV6IBzyegHvUi6aJwZtSmEu85McZIQH69W/DArjq13NndRoxoqyKUc0940kVhFujQktNJwgP19far1tZQ2kZa4kW4kOMs6dO+Ap/mfyqw13tRI7Y7AowCY8Kv8AwHpg+tZ92sKkTXl1JanjMZACuPbP+NZqDl8RvrLRE095cFpBbkGUdFwd5H0pumxy6rqS2K2Vyt4W/eFRlEH94noBWro/h2TXNxhuLqC2Q58/g7iPQevTmvRLOxt7K18q1jCEn5yqr8x9WJ5J4ruo4fmV3ojkxGLhSXLHVkGkaRBpFqMuryMP39wV27iMn8PpWi87IvmsA8YwAVTJz24HPNJtbezJucH5eAME/wCT6VDIxae2hK4+ZpchMrx0Un0PPUdq70ktEeNKcptykya0T5jO4BeTlnc4Geygegzx6c9ao63YnWdGurNC0crxZjJ+bY46cjjqKv7dzR9WEm1SxBfHBOQc/qKNmGDFGjAy2CeAen44ptXVmKLcZJo8XtLuQx7Z42EygpIsy7QwzjaRS3Ef2do2Qk2zDCMfvKf7h9x/KtrxXon2LxBJMSvk3X72JScYb+ID+f41Qit5GiaOWMvFJwwDDP1+orx60XCTsfR05qcFNdSNJ50jjCp5iNyqk9T7V1WjeL7pR5V/GXgUf65T80fuw7iuGuY59Pl8nf5kRGVkQ4DIPT3oNxIIZSnzbkxgDB5qqdZrYdShCqrSPaJtRt47RrmSZDbYz5m7Kgd+R1+lSWks0qtLLG8QyQmfvsB0J9PYfnXkeg6zPpzCVWM1urhpEcZBb2HY+9eqaVrNpqcBkt2+YDMkZGGXPtXoU6ymeLicJKi+6L7sBGGwCp5GRjAppG5QxxkDK5GTt64HrSbtq4GM7eW7EdBk0xDKjhSZCMFSmBk57+3I7etanGTYTbuICKO+eP8AJGfxpZAOcuWAAO0A8Y6H8vSokKsvTJdRw3QgdDg8VKyyEAHaSmSO3J7E9V5oAc0uFZnWPygOABzgda85urn7ZfT3Rwysx5z0HpXXeI7r7Jo04wqSS4i465PX+tcFIVghHl4XnDLnv61xYqdlY9TAU9HI02lQaavPHmkkH/dpml6uttq9hnaPOmEYjXkkN6j071kvOwsIScEtMwwO/Aoit3huhPCV+2ZAjDHhO/NcVN63O6dPmi0erFQ8kquMDjaeoI54I7fh/SnSRtJvRdiIycEk8nPHv+NRxTCeMSIGPmIGDHoOBkdakDAsuAoZQCxP+FeundHz70djAjEQCrHIFyjf6uMZYdDz3AqdkR8BircFyGOCOOuR05waYm9fLUs28E8A7sqBnPr+ZqSSMkqnyleWX5BhSenfg/4VRRyniG7e7mt7JEXao53NkAkZyfYDmstTb74oipW1XC8Hadnf8T/WoNSv8TXV1IyO1zMwUZwNoODj6nA/A1V8uaTAlZ4gxysfVsHvjt9TivCqVXKq5HsUYKMEjX1bXZLhYYIlUQKNqW0WT+nftWdHaXN1tW4kbP8AFFGeR9T0H0GT9KnhSOEbURVyMcHJb6t1/AYFXLbR72/kULcRWkKnlyQW9gq8c1Sc6rsy1yU46aIgM8Vlb7YdsMagkAdOPX1Puagtmj1tdsUd5M/QNAmM/piustfDmjxbpLy6e9cHbuuJBjOf7gwMfnWlJrej2UYjN1E20ZCQqZAPYKOBXXDCKPxM5pYu+kI3ZyFn4a1i5ZIJbdLWEknzZLomXA/2VJz+JrqLDwxYWxH2thf3CDKmdVwoPQBRx+dMPimxjw0iTxxscjKAYI6ck8UHxXpqjDGWLeR8oXofXr06cCuiCox2M5yxM9LNeh0OAgSMMEUptCgYXnpxjihGUbWCqpYbiTjcVBxg+oHNZEXiTSZpWi89wGBU7o2RW9DmtiAw3FuzQTpPE2c7GyMn17/4V0KSezOKdOcdZIGCSNliAfuMWAz9c49/1phOLtOCXMZyAxORnHTv+PvTyS/DB1JOMNwNpx055x39zTGRvMimC79xwzqBknHA59OaozLB2IkbLDjYcKVO0H047jrx7VAcLvTOG3EYwAfUH2qfy0VcBQdpPKjkd+/1puwDPmEyJtJOCB6du9MLnOeNNMi1LRGeSLzXt28zYW7dyD+tedRKsBxGUZccEHkD+teyGJZmkRiSky7WxwMdMc968ivLKKz1Ka0miQTxOVGOMjsT9RXDi4dUevl9W8XDsSzRxXlr5FwDGpORJ/zzf+8MdvX2rJH+jyS2lzGYp92S2QcjsR6561pxXMYYLGo9GVh39qL21Go26qOLmPIt26fWM+3pXlu8Xc74uz1MtY1jcS5bYwwWfsf6Vq2eoXenutzbTBJUIxxnKnqPpWPZzMymNiykHDB1zzV9VWWCVYwqMIzhlY4rWFTqi5pPSR6rpOqwatZLPtCOv+siPUe/071eV2O4Nu+Uk5B9cY7eufyryfStSn0nUorwOxiZdpB7juD/AEr02xvbfUrKC5tX3rIQcEZZSDXqUaqmrHhYzCujK62ZeVAzbQPlI+ZScg9sH25p8TlyNirnI5HBX1/DNMV8OHIOQxIJIJqTcWYk4EnLKGOcgc9egHWtzjOQ8bTlpLK3ePcu5ndg2MHoK5VEQEo7FiBgHqa6Dxa7zauYEdVj8tMHHKnnr7c1g+U0OMuRIrYkXPX3BrysVK8z3cKuWkhLmAR2tpjlsyHcO3IplpKVTc64JOMnt7VanTFlZhtxz5gBH1FRLpiXMokLMsEalfQsxH61zQ2N07noOgXKXWgQPCy8B4yexIOOR9K0k8sr5aKVXdtVWBBXjPtx1wa5/wAKQR22irawE4WZt+4+vPH6V0Ecankk4Hy8tkgcf4D3r2KLvBHg11y1ZLzOdNxbWuWe4hAYYIbAz6Zwc8cDBpr6hHNBi282Q4OPKj3YPPGT161III4Dsgit4gwPzxLkj6+oz361Jv3OnMivzwWyD1xjjjn17USjOSte3yK5qa2V/n/kcDqMH2a+WWANArjYsj2zEpg8qv8ACpySSeSc8VGsUixFY5EJPJLBwW9ySOT9a9BcxmNklA2pnO5dxPYE59yM49aqmys5JDE9ugkU5fyxtwT6YPI9M1w/2fyr3ZfedX11N6o4V4r9MeWEdQOSZMEn8aZ5+qgFRZYBPKpIh4/OuwuvCrSbGttVmtnAyyyIrrz0z0NZlzpmtWiDzbQXoQY326/eH+63I/Ws3hasNTohiactLmAJdTDcaddo2eD5Oc/iP51DLfmAc206HOS21uR3xkdK2IpYronyozFOg2tDMmxjj2pPt0lvIGMdwsfcxOSPTsazftNjpUuxjLqVqBzFvUHG6Qk59ttX0v4RGI0jiZsYLheB7CrB1BWl8slpDn5WZVJI9ckVGVsWkX/RrdkPzEGNc4/DFK8zRMaZQ6qZZzsPTBwfw/xoivJEZUSRVYH5SXIIPrkVJNbW2V8y3Tbj5GRmAYeowaiGnWUisY5JEJ4+WQH9GH9auM5LoCkup02neMXtUjjvlFxEDhpBgMvoc9+K6m2vrTV7MyWciTKDuXn5lb3U+1eZGwngIEN0jZ5Hmx/yIyKfaNf2FytzChEq8rJBIGA/D/EV2UsS1ozjrYKnUV4aM9ZgaRk+bAUkkk/LkY7g96g3bgJHG5mALlVwOvAzjnvWL4f8QxahIsUoVbkDkdd2PbrnviugJZkXYE3FlLAfdx/9f9K7oyUldHj1Kcqb5ZIhG0SEsZPkBGZO46g49f8ACuS8b6MbnytQt0JdCElTAG8djnqMdK7CUyqrHLP8pxghfwx3x7morm3M8EySxB4Jf3RTO046Hr6cn8qU4c0Wi6FV0pqSPKXt2Qhvs7My9QVGcVJFMQdjxoN33eOau3lrdaZezac9wrgcxMRklOxJ7j+VUPs88Sc26s4Ocx84/qK8WrFxdme9zqSuiDVbWSTdfQ7xcKP9IUfxr2f+h/OoLG9DW0uVQjgcY4rWtY3dVYOkMg6GZvzBHcVmalpsdgyzWgLQySHIb+Fv7v0Hb2rmvysIvow/eI4MbAx7gGXGQM9/auq0G/k0y6UowNvIQXUe3ce9cvbyB4JUDqG2gBT39sVYg1ZIY5FXau1cn1UjvXRTquLuh1YqpHlaPXY5lk2yBlKuud6jJI9KkYlLUsV5UnPHPrjjvXL+EdQEvnWqyEqV8wK/OP72PY5rpFVhKDtwCuMFSM+uDXsUp88bnz1Wm6c3E4DxGMeKbiYsVRkTYMZ/h4FVxD521lOWAzs9R/8AWqzr8Lz+KJ5YmI4TKZwCMVX/AIspLubqMcA49PSvLxXxs9qn/Cj6C3R8vTrTax3l3AH5VVuJ5CFhSXyUAxuxnnua0ZZpJtLiLKhcSuu7GD0GaxXUq/lgZlchVc9APSueG1zSB1/gyA2mn3bC5FxLLKJi/oTx+GMV06JH8q4ZlYkZBPJHr7e9cn4M8lH1BoismSgKowO0c/r3rreNxxtXauQQ3O4nkew6fWvXw/8ADR42L/jMxWYkpG5w33A69OPr27YpkrRksJSpjLYLbgD82OvI46fXFKCsW8jbsYn5UPOc/nnGKaUwu1SRjJ4UEDv07n2HTFdBiNTDAsXUCFjyV3bRnHXnH4dcVNABIq7uWA6bTt6joOnp3qIu5VcYzwVVmyu4rz1P6djSwymRsxs+NoA/eZGDzg44J96Yi3ABg4SMcEFthGRyf5nNOZtyHKGVwMgggYPsfTioYWlkMR2gqwBHy8KT3znge2DUykkKQkaopZwqNkKQeeemc5/A0wG3mm2erR/6VHHLIFAiYNtfPchuuOnFY134NV5H8jUZosEApIgJU+x4P5g1vs6p87Bzg7io5OG55qRgsZZEZgoO5R12Y469Rn3z3rOVKEt0aQrVIfCziZ/DGrwoVZIrtBxvhkXcc9CVIGKoT6DqUOWOmTfIvzFCN2fXAPI9RXoOzyyzjYN4ztGW6/eH8hQIxJI3DHqA2emT1yO44HX2rF4WB0xx9Vb2OItfDmpM+YNPkgjJBfzpAgHHzHB/Pir8XgqSVXE92qIGwjrkn69q61UkYlA7bQpV8/xHbj1OB71ajG6Egxx4DDIOccD+fbNVHDQRMsdVe2hzEfguxix9ou7slTg4IAPrxyRn/wCvViPwhYkS5ubogHKqCo2/jitz5DJKWVncEBW6gHHYcev6U9niBVuDtXAzyR9MHPatPZQ7GX1qr/MYp8J6fHmUy3TMh3IzSYKMozwQM1elvBakmfKhANshXKnHOQfXHXNXwMrhs9iB+oyevGKrtCmDKHOWKk4IA6cDB6g9auMFHYznUlP4nczpNTM995cMRnzxtSFiTgkkFjhR1HP1qWNNQQh/IQO4UFGl4OOuMDr+lXZOSw+YcZ2/iBnrjHTinFBhUdVXdyMYwGz/AC/HmqMzmtfsW1ewV/IEF2ufs82AwIJPGR69frXBm9u0+dd86o2x2ZQjZHavXtxfKxuqlcAu6ggEDGAM5/CuS8TaLbW7S6rb25ZT/r4l4Tpw5H6E/jXJiaPMro9HBYhRfJLbocnE/n/MY2STOCJFxjNXkjDRvDc/NBIuyUAZ+jA+o/xrMhupTIzIYpLfOPLc/PH7fSr0NykZ2hCQDg7m4FePON9D0peRiy28mn6iLZiAyfxpyHU9G+ladvBHcyGNgrCRGQ8AhuPWrN5Yf2hCqQrtmQE2revrGfY9vesfS74RzSbgyBEJKt2bpj61nB20Y1K6NDSGvbSVHt5ZPNt8Oqk8EDqM+4GK9ZguY5rdbqP7rxblKnOQea8idQzxzR/vCD0Unj/Gu48G34ksJ9LmQqbcb48942PTn0OR+Vepg6lnys8/HU7pTMPxXdGLxJNbSxyKJo1liYLkHjGPqMVTiQSw+ZC6lj9+M9R7j2ra8fRiJ9L1LyTMFkaJgpxgHkf1rn5MCYNGvzEghkPC8dKyxcbVDfDS5qUbGoxB0Vfn4E5578rVK4EVjA005BmZcRg87QfYdzVprlW0Zt6gslwDnpk7T1rMt981yJGYrg5YN3P+e9ccGzZHU+Ao7ZdHuZIYDGzTnzCBySR1Ndcg8uFQVQkZXCjIJ6j1wPzrn/DaqbG8RZQiCUBWj4I4HfBwfwrdX5ZXLSRsAuS+4qR749K9rD/w0eNiXerJnPrI2+Kfz/NR1/d+XtAxtBJU4zk88Zx1ppiBRBvQoFLFAQxUE44I6kEH3+lRqx8pY/LQbtikJLlM/Xk56HHfj0oBEuxFRwPlkO3huD14ODn2rczFkUqhkWP7ylipX5Oowc+vXr14qZQxlYqQihyDgDhQMkfXkHpxUZf5hIoKrJwru25QMZAx/jinxXAbkqpbk5Vhwff36e/WmIslVlhGEVwwIGOrd8dMY45/OppjGDI23dgBinCkqAOPQnPrVeKSUZDMQrMPmQEL1OSRn/8AXzTo5S8Eiw8xhflKjnr6+39KBEsMawKSTsADLnfwQcN1xnBPPPvU24lEDZYAEgbgTkcHHHHQ1XEgli8zyyFBDLhCpJPTnvz9KkkB3qsyEbvnxkdff9DkGmA8EKfNSQ/uzmQhQQR1xyP8KVQjSqxfaCpYAhcc/d47cnNQEtJC8IlIcttDIwV8f72T19cUrSYY5jUDcB5gbdg4457Dj9aQ7FpfP38sMFRzsCkEZ7/Tr/SpwWDRMuAB97LYGOfX+veq2MoqsshAJyCTyeoyM0ssrRxqWnKKPmeSYbc8/qMZ4xzTuSl2JMeXKigORtyq7RjBPByByamiBQOGBYqM/dGf0GM1itrmjQsEa+haRnLYR87ieAcDgcVC/i/QmdYzcGNd20kxsV9xnt9annRqqFR6qLOkkYSKwcsF25JXpwfXt1qt96RnBU7mDEenpgEcDr/SqkPiDR5OI9Ut2YDAyxVj6AnjNOF7bOitFeQnB+Ugqfw6/WnzIh05LdFtTITlcquduSccZx0p6zhSdiFo93zYP3egJJx61Vyrp5gBKseXA7Zxwc+uD+FTKMFAACST5hJOXAHr/M07kNDhHJFuwJCD1DEBeOh49+/sKJdhAjZcl4yArck8889D/Pmgszx4B2sFCrtIIBPBAJ6/lUbKzPGoXgZ2l15BxjjB/wAg0Ajg9f0g6ZKZ3t42tJCAJFADRE/wt2IPY1gpMYrlkuLUorfczyp/GvWXiiuIngdVlVk2ujDKsPTB+tcB4h0q40CZTCgbSHPLOeIT/dPt6H8K87FYf7UT1cLieb3JblSCRJyYDLhs/KVJ3f5FVdbtC0BvlhC3EbgXmzgPnhZfoeh9DUkw+0KJ9PjZioyYxwxH9akt74yxqzW48wAq0TZ/eKfvIf6ehxXlzj1OzbUzLYb44pYGmIc/MoOM475roNLuJNO1Wxu23CPcYZSW4CMev4HFc/JAumXHlpM7Wkqh4WP8SH29Qcg/StSNlbTU3KGUsykKeo9cVVGraVyKnvRs+p2XjO0Sbw9OrqcRMHLBu2cZ+veuKS1drUEPC/G0+XIOa7W2nGqeFLmKYgzRwFZQR97jhvxx/OuAhCpEQ6BcE8BTk5ruxj5kpI58HdRcX0ZM0p/siYSE5F0ilSf9k021YmVZiEwvQjkAU+ctJo7B0AdLmPPt8pqoClnYm9ukfysDCRjkLnrjuK82nLWx19DvfA8Tf2TOWlJmmnZ2UdhgYB/CulCo5LM4XYAzArhgD2z2NYfhW2kh8PxvMCstwPOZWAJQN91cfStsNEd5XYJFXDEDdls8EivfoK0EjxKz5qjZyXCx5llii8wkBMjcjYXkc9iOnYnrU/7tEUho1XJKJsyEI6kDp0PPbmqqPJbuqLubH3SRt/BTg5PPXj6HGaA7RlN+zjADBsZbgE4PXcCBz6e4rYTLjJGoZ5F/f8jepUEqT16YyOOD1IpkQjJaXcvmDKpJ8p9T9Dz7cVTBAj2g7jEpREjdjuwSQDnnPBHJ7fhUyMWhkYFjl9/zNkAkcgDjpxjOOtBJpJvCLu8xGfBYqFJIOf4T6ZoZHLl4XMkiEAfd24x0557Hv36VDFIoBUyvG5QAkgsWIH1yOuPX602K4QhWKqn3VJyc7yMcH09qALCNGroHwzAZRpOd2Se4GOOuPxqVCglkC+WrbgzoijI4zjBHp781XjCwyMo5cgKg6g4PAz7E9O9OYBbYx7NudzkE4I3ZOTnOO/TPNFwsTq8h2+aflyM55IJHBzt55HfFVb6G+kSQWlwp28FCigfmePSpZDIAifwsoB5ztIyc89u2fpSC5HmsEaMIwMgBcNlem49Ohx+PWlJXVhxfK7nJ3V5qwEkNxq09rKThVaIYJ+q1hjTtYlkLrqcF8c8q8p3EfRq9Hura21GEQ3sSvG2SDjGCBk7T9Oa4/WPDt5p482zlS509uM7cyIM/xY6j3rlqQqRV0z1sNiKb92yTMWS3v7RstaTRL0JWPIP41E+qQcSI8cbsdjKR1I9qu22pS2YHlXM49CjfL+VSy6lZ3iCO/s7O85zvdNj/APfS1x+0lfU7k2t0VI2LOZw8eAMtGV6+9W0usJhOWPTI5I/wqN9I0yRd1vc3unu2dnmjzU59+uPwqp/ZmsWgMgC3sKgky2rZJHuOtT7XuNNSNSKa8hfOn3clpPnlN52E/j0rXsPG2pRzNBqCRSlCVI+4w/HvXGQajCxKu0iydAucH8QeavmaC7jUkkXEK5BIwZE7qf5itY12upnOjTnpOJ6hp+vWN1Gw3/Z2A+42FxnuD/nmr0pDLuC7uPvYyHwD+nt715Kl8AYzFtUtyQTwR75q9a6tc2ksa2N1JGJesJOUB9ADXRDFLaRwVcvV/cZ6OsjPbxMJBhzxtQ4yOuM9Op6+lJKIbmF4J4hJE37swSL2zjB5Pr1rnLDxTPkjUII2/wCm0QyCOfvDt610FnLb3ltHNZy7ogoAG77rD0HaumNSM9jz6lCdLc89v/Dc3h/US+nzsNKlJMYbJ8tu6Z64z0phvEbYLlSSWwHUYOfY969HuI45oHSbbNHLwyNxyTwB7/4VwGt+H7rRnN9aTPNYN/rElGSg+vb61w4nDfaid1DE865Z7kVxYpd28lq13F5czAwSkcxynsf9luh96xLS4ls7p4ZgB5TeX5Z4K47VpBS8Rwh+zyjaUUck/XtVfU4mvIDdRn/SoAq3GR/rE/hk/ofevIknHY7IroaOnal/Z8rE7jHcIU2k8FT6/jVSRII8gtI6sdymLn5feqUFwZl+fJGc7VPT6e1WredbuBo3VYNp3Aop4X0/OtFVc1YSjZ3RYtkj/su5E5bYJ43UL/H14zRJi+vreFSyb5lXJ6ewAHbtUignTLxT0QxsuP8AexUmiWj3Gt2M3mKFjmHy4yG68CigvesKbtFs9JikMmQFIXbt2nPAHfHr/Sho0aVQYQSAMsOCCP58UfdEu1WG1u2OcjOaIysSEIxIwTtPzOSfTPUZ/SvolseEcJBKE8sMGiL7jGqbsuO/X049APXtVhp48ECPMfJ8pwGLAgZAwck9DzVe3ILOcMvXegckgbsg46Zz/jzQgaSKOFXkYFhvljfdNuBB4GMEY+8eCPTFM2JIHQR7XlDgHZhRwSADgYGMdOp46VMEZnKtneB5bqo2hcDdye+eenTv2pABMrPcKQ38Xm5YhQAehGG7H+tPTKO6mOSQlGdmXC+XliCCDwORn8D7CgmxaVpGmIVI/IA3EbsAse+08jv7dKJFlZHlBSJ+T5Yk8slB2I5/lgj606BkkRNrmRwoBlVAdx/xx79zTZWdIgWBZt4bJQuSDj5T/d/UUCJGJmZmKkx9RIjBcYOQenQ4xUoeIyx/6ry1+6iZyVHzZ9AO/rUUbLgwqGDZAXKluR179ec+lJvCF/NcsYVzHiNQxJ5x1wTjPB7UwsSK42hvLUhl+UhtvHqcjPoAD2pVZyeXmVdqrsbaPXd9B0PWmqrSFwwdEYlDuUsMDsB3Bx070kkOInBVwuxVyeBnnB5II5HT370CJlIwrCVhECZAVbG31BXGfx96sK21CCCY1+8pOcevbJFV4g/lBR8xVflJbJBx1J/Hk1IFYJuIcuSDksRwBjjrx1oEYV94Vs5ZmubOVYQ3Igx8hz9Olc1ci4sZXS6sli2f8tSoCkexr0V3CA/IxchW+4SCPb165NIYBLF5UkaSRknPmLkYH6f/AKqwnQjLY7aONnDSWqPLWu1LGWMttzgkn73+FXbe4ucrcLJ5YH/LXO0/QY610974Qhf95Y3P2dt25oT8yH1x3FcpqGjanBcyS3FsUjQZDn5lPsCOlcdSi0epTr0quzLt1PZ6kqreafBdoOBK42S59dwpkOiW32iM299JER8vl3XIxjoGH9ayop+S/nICeflPK/gatQyuScMcdS7dD/8AX9q5JRtsaONtijcx3+kny76xwp+VZCMg89Q3Sr0Aivbdk5VwN4JOelaNrqYVPJgJSJuSkoyr/VTUbabp0jmSNJLKUg/PAd0RJHdeoH0qHKS3E5PqJBM4AjQBwOdwbkj3qxaXdzpsjT6cd6MPmgfnPsQP51hyadq+nRmZoRdW6jAuLQ7gvuR1FQQ3rLNHNbzFJQxO4d/UMO1XGs4u6JlBSVnqj1nS9ag1JPlMkc6rlrc4J+o7kfSrgZmRojEJxICSCc/L3BB/T6V5el9cwTxkrvjHzCRHAbB7jvXV6V4jEgVJgWjC/wCsAzx6Ef4V6VHFRnpI8uvg3F3hsYutabceHrsBT/xLJX2xyE827H/lmx/unse3Q1VMiROl1DKJZYsq8YX5ZFPDIT3z/PFegvDY6zYSQGSKe2lBDBDkEEd/QivNZrV9L1G4sZTsETYB28N9PwOfxrix1FR9+OxrhqrkuWW6KUsRsL0S2wEkNwN0DMOGQ+o9R0+tT2k0ZuFWS4AU/wDLNgePbinXMHm2/wBlDsfmMtuMd/4k+h6j3HvWZDJIFZ4wnHTJxuPsD3rzLtPQ7NDpUDRWt9BJtQGEMPQAMP8AGrfhudZNbtbVUCeXmRe5IA6msy3Yz28/zIWe2cH5wc4Gf6Vo+DYXTWHk8klzbFUIbryM/pmurC+9USMqrXspM7wFZN22PKsdrL6H/CnK7zThBvY4IBOdoI9SPumosObo5jYhnB3Ag47cDg9OeaVFcAGGHIBwGzwv4EjPpj6V9AeMcEJBFuWZWHluVLSL1PBGQOeRgg8YyPQ1Jv8AtA82SORiY+FQB1UHPzBwevUHHSm2+4kB1dldTIJXOec4IBzxn06nB+tRQpbtIzrBwVWJGRSiqTk7VJPGfTHr1OKZobcCpsiBebAIKzIcbuTkEg9Pr1xUDRxyW7ea5aPl0aTjbj3YdQBnOMfnUEcm2OISESF1DSOgMiIvQHeBj8Opp4ZYw25XkZA/mFUyGJPI5JI6g4oEXnffukDSDEY3HZhcBskY/Hr9KerhyXl85gUwQoK7h6jHRskcf0qvGgCGRpcYOXYAJnsMjOB1PGKRIVIQKkqDzMOMZxtJyck8jHagRbYlWLIqYGCzZ6MewB69D64xjvUrny3WXaMBj688cA47Z6Z7mqltIqLE4VlRRvQZwwAOeScnBJz+Qp7AKFHmbeCTuLFtuexzgY6H04oCxOvliQCRFVWQIBls7T2HuD3p6EYyhXocFNpKHjjp145FU1L8KzeYNhQjnI5PPOAP4cd88+lWtzRKycr04LHdnuT2/H60xE6uowoPBJ27jkhfQjGc9qsRKCCABtywAJ7Hp9M/0qmiuwQkbMJlwwGd2M/mP8mpI9+BkkDjBZCMYPXJPHP86BEqnftOGXGQMZwOfbpmnxAoqlymZGbJXo4zwKgeQrKMuVDdAqnDZI7dwcUqPk5aPy3Jwwz7+/t/OgLFtt4hIUksB1HJ49D+dRqygMHGVGeg3HHXkd/5015GxnLPKSAQMHBz7+2KrtKJRgbhzv3bQfYcHoec4PXmla4Iq3+g2F5udEEE/JDomQfwxWDc+HdSjVj/AMfaDlRHwc9utdWHEarI2flywXJAPYYx9B1GKkidCWVcnywCQWzx03YHbg1jPDwkdNPFVYaXueeCxv4jtmh+yDsLgbTz7nrUiW9zGN5KBScExnd+lejtLFdKvmQiRHUnD/Mp7gqehrC1DwtFd4e2lktZCSCin5PoR/ga5p4N9Dsp46Mvj0OahnW0nEsMssc395Tt/Md6S4htdRjLalbJLKfu3Nswil+pA4anXWi3NhAGkhMsfI82Jt6n/Cs9rUM4eI7xtwSTgA1wzpOL1R1KUZaxY5/Ds5gVtOuhdlCcxMPLmVfoeG/CsxDJa3CwMZracHmKcFVOa0I4tQifH2gSL/DHuz+TVYe/1GUiG5jiuIMYMV0u5R9G6g1jyuOxXM9mEF3JFKSWXevQodpH+NTXWpSX5X7UIlkQfJOATu9mH9az2s9OmcGF59NmHSOU+bCfoRyKV7fUbaFjJGk8QwRNB86/pyKmpOTjZszcVuhZyzho5ZCJT86Mo9OQazbwgql4kQAclJV7JJ3/AAPUVKt0jnZlnjySRjlT6inMEiDecTJZzgJMy9QOzAf3lPP51zx3syVpuT6I6tJhfLAKODsGMfIe1anh6/WwmS6VWKoNmM/ezxgfnXP6X51lrL2szB5FjkYEdGXYSGHsRVnwuzalrdhYg8LIJpQOgC8itqUJRqJruKaXK7nrMmzzNzqeB/eOJAOMEf41IGY7FZs7ELMz/NjjAP14pJHjwqR4bc4BDN8vrgn8KBOvk/eA56jkFsjn+lfTLY8ax50m2OMCWVWbPyscZTDbcjOcde3JNTSSeaoV5WaNdmJycKw3HcAOoyB1HTPWs8zSRoI4o5XmCKvyo3znHUk9uTww96t4DXTIrXIYSMP7owSR1PYdsYpmhOI5VhkcBlBwVjBRQSxGSNvJB98ZzShY/MWKTyynmM3mbdoTBBwAB36enBpjSbbd2TarAhTIWAaL+8xPbg449c96cJXYtHJKUSRGymQoyMFeR947eSDwQMDrTEX1nOGL8ruMb4YYbqBu479PX8KcJEKI+yN9uNoZcOwHAxz2GRzwTVRWwGk3mRCWO1VO4MpyuBk447Htg8dKe8kYSWEvJGGdVV1QMFyP4RnHfPtzSBotBHwoJG0BcqT930IX+HIHTpkDPrUjqhuHO0CUsACOcgZBznoOe/TNVUDSsvmCTa2WIjQMFII46cdOxz9aspLKxVXjcA7i+GX58Ag8E8HgEZ/HFAiRUkdR85beDwXBQ+uemO1SxZRUlVJNuCwbggdjlj7E846YqCJUE7SGFiwG3jg7eWzk/lTw+6KUBpPKIHmBW2tHx8xz1JyTxj6UCLMalo1KRmNEYIVUgbeeevuB+B4qwqFoQF3DeVJct8wxyQSOAD6jNVQXUtIId0qjcQckpxnH6cY9akWNclY1ZDg5GWU9jxz06nj+eaYrCNJtV9pYsU2q7EHOemCOvGMZqRdi88qobcc8ADsc9+O39ajkZllUlUUluIh8hIx27YyBjOKk2MCit5sTA7SgYDDEEYPJz1zge30oAmJIiyU6dCc8gkfjURJbL4whUspLY29P0P0zxQ2I9gOELJjKsN3HJJ/H9aYm6GHfveRlDYkQDOehODz17CgCRU3OskfyqGyijgbuSSeOfftzUsW8B3EbK6bW4Ofm7+4HI49R0qJiGVSJgrlVG1iCWA6Ee/v7mlWTdbktauUj+UICrEgHggdTn35wM0AXhIdi7kyjHGFzhjjOM46c9agacxjc0jNgbcR4XKjkkcHJ56d8U1FKtIoDKFcMyrjoc84GcDHTgdKSbIxEhDkkEhgAVz6Y4xjP559qBCo/lYCMX3jaNzbgDjIH+yMDnIzzUA0+wngV5LOMBxlsHlT3z9KcGTAdmKliZCGcEIx9+3p1qZkbCgFh85MfycEEZxjI98VMoqW5UZSjsZc3hXSn2lLeSMyAMux8Z55x9ByapTeEo38ww6lOB3SSMEHPp0zj2reEWZHmUFZRuC4btgDdjpnr061JnKKA4KH3HXPYn1zWbowfQ1VeoupyQ8IXkMpFvcwODzhgVJ/Oqz6Hq1m++OzJfu1rJg49xXbGVleNZFZcDJf5SB6jBOeeBnFSB23boge2GI+99fpjmsJ4GnItYqfU89mtrjb/AKdpqTqerOhjk/76X+tZvk6c821Lu6sZG+Upcx74m9twr1XeNpwysvbbj6/lzUVxa21zGA8EbgKWbKBufp6Gud5aujNFi+6PP9K0Vp54pHltJfJR4oJ7eTcrRsCNh75B6exrV8E232a6vfs+mSRW6fL50y7ZJmzyfZa6GTw/YTxgfZlhZFwpifbt57ds1Xhe70rKXaG5sD0uEHK/7w7fXpWNPC1KNbnqax/I1nXVWDjHc3FUllwAsbY5XCsDnpSbpELGUlnyBvUZ69cjPA4H41BHNHLD50RjePPDbvX+tMmW2nTyHEcit/Ae5U559SD3r2U01dHnOLi7M81Mk0indlyj4maBwQQBkZZhywwMDpnGelSuWXer+Xscb/lO58qeMgZ54B4Hr17UA8ctuE8qKXepWNc7tvJ5ycbsknI4Ix3q7v8AOZYhEI41ZmG8q6uQBkBjnBzz07/WmXYsPP5V2jOuHfPzgbmYDJ+XbyG5GQe1WYiyhi000e9CHK7SQOqkADqOg/E4qhLKJoU3SIEOwltqgFThcFQfvbhkE56DmrEbKkwQ5jVWO8eXnbhfQt1xjGM+vpTGTrcI+0u/mIWDMkXWVgvBBH3uc+/X0qRZRDEJI3R2y64zsGR98lTzgHsKijll+zDyXEiupRUAOWIGAxGfu56A5Pp1NOgiQqHeMyysAqAAtldxIAI6Dkc9DjmgTLNoIsW42J0xjfnChepx7ADH41YZhGEcBVIZVSN3KEqSepZSe5yCfTkCqkciLGGbzQ5+fKp99iBjGSMNjjAOBVlomdVEjxrMSwwQC2CM8E8+/wCYoFYngziNTI6bRyACc85JB9RyCMY5p6yiOIyscKEDgrJyVyOAOcqPUj9KrQ5eUOjB93PmKpU464IxwP8A61WDsfzZySWyMANyM44b24AIH40hWJTuEbobi4LFvmwSSpI3cY/D/wDVU6zyiF3DB4hlysjcDodwBGF5PIHSqphiVkPzLuYjK5ySMk5JOP4sfT1qwFV1TzSjrtwqq2ADnsPTHb/9VMB0k5n86Nn+beFDBsthsAYB6c5yOc1KOcfITtQvsPsTgdOemcewqnK7SxNveNpYiV3Bs7hg4Iz0+lOt3BjD4woK/u1bcuQBkZznp/LNAWLBeRVKh2ILZIJ++vHb8vyqBJmaNRGzBucASH5R06hSMg96ewIQx7l3Y2kdGU5GTkc555PHUcUnlo21wOOScvnj2/z60BYYHKsNyfLjYsncAYI5P0z6VZjugIljaJnIALMx2k8EAnI78fnVVd5G4lVdQR2VVJHUc47U/azKfuh3Qg56FuOm36k0BYvmV9oRchgWBdlBIbIA+v8ATiopWjaRllAZ1wNpfcDjkEZHbmoZSVTYSp4JGT/+rnOPzqMLIGXYGDnLEZ4GeQBwOOuPX2oFYtLcHzCxCIHx8qt155zxweuR7U8T7dyqmAvDfOcjIzjGPTp+XeqSqUwUjC8H5UxljnPU457896dG25Y2MbsGUEiNV5HTJ55+n/1qAsWzPkEmRVVGC7WdsZJ4/mD9eKkaaPY+9hhSQ/HAGOhyMEd/yqpI6xsuTIDs3YI+UkfpjGOO/XmnNJIJcf3vmUrjacDJ6d+c465NAy6jiQKrFAVbBG4HP+zux06VEhyXliMrEjncGUkgkfl2zj1PNQ7mOVYucgspOMcd8e3HWot64jUIBGcqXVTn2zz7nHegTLizByHaNgoOenGfr6Ag0+R32D94zYbAbbwMnp7/AFqmr53bSq4H97OfT6jrUjZH+qIVslQMDOMDj9KAsWlkcEAlQMkZb246U8MeXOCWIAQDAHrn8Kps2Itp3Z6AEjgeg/Q/nT96shy4PHylj/Tv9aQGfPZ3FpI1xpMflyEbmt2YbZD6D0NWdL1uDU4z8rRXEfElu4wyHuMU9gMsI2IaQ7Q57dwfeqOo6Wl263lpIIb1BlJ1Jw2OzDuuaz5OV3idEaimuWp95//Z;fontFamily=宋体;fontSize=20;" vertex="1" parent="1">
          <mxGeometry x="-7585" y="-979" width="255" height="255" as="geometry" />
        </mxCell>
        <mxCell id="JPZK0ji-hKKs32w-uGpX-4" value="感知对比学习头" style="rounded=1;whiteSpace=wrap;html=1;fontFamily=宋体;fontSize=20;" vertex="1" parent="1">
          <mxGeometry x="-7280" y="-895" width="120" height="90" as="geometry" />
        </mxCell>
        <mxCell id="JPZK0ji-hKKs32w-uGpX-5" value="" style="ellipse;whiteSpace=wrap;html=1;aspect=fixed;fillColor=#f0a30a;fontColor=#000000;strokeColor=#BD7000;fontFamily=宋体;fontSize=20;" vertex="1" parent="1">
          <mxGeometry x="-6617.5" y="-854" width="20" height="20" as="geometry" />
        </mxCell>
        <mxCell id="JPZK0ji-hKKs32w-uGpX-6" value="" style="ellipse;whiteSpace=wrap;html=1;aspect=fixed;fillColor=#f0a30a;fontColor=#000000;strokeColor=#BD7000;fontFamily=宋体;fontSize=20;" vertex="1" parent="1">
          <mxGeometry x="-6697.5" y="-817" width="20" height="20" as="geometry" />
        </mxCell>
        <mxCell id="JPZK0ji-hKKs32w-uGpX-7" value="" style="ellipse;whiteSpace=wrap;html=1;aspect=fixed;fillColor=#f0a30a;fontColor=#000000;strokeColor=#BD7000;fontFamily=宋体;fontSize=20;" vertex="1" parent="1">
          <mxGeometry x="-6682.5" y="-901" width="20" height="20" as="geometry" />
        </mxCell>
        <mxCell id="JPZK0ji-hKKs32w-uGpX-8" value="" style="ellipse;whiteSpace=wrap;html=1;aspect=fixed;fillColor=#76608a;fontColor=#ffffff;strokeColor=#432D57;fontFamily=宋体;fontSize=20;" vertex="1" parent="1">
          <mxGeometry x="-6757.5" y="-767" width="20" height="20" as="geometry" />
        </mxCell>
        <mxCell id="JPZK0ji-hKKs32w-uGpX-9" value="" style="ellipse;whiteSpace=wrap;html=1;aspect=fixed;fillColor=#76608a;fontColor=#ffffff;strokeColor=#432D57;fontFamily=宋体;fontSize=20;" vertex="1" parent="1">
          <mxGeometry x="-6647.5" y="-767" width="20" height="20" as="geometry" />
        </mxCell>
        <mxCell id="JPZK0ji-hKKs32w-uGpX-10" value="" style="ellipse;whiteSpace=wrap;html=1;aspect=fixed;fillColor=#76608a;fontColor=#ffffff;strokeColor=#432D57;fontFamily=宋体;fontSize=20;" vertex="1" parent="1">
          <mxGeometry x="-6737.5" y="-961" width="20" height="20" as="geometry" />
        </mxCell>
        <mxCell id="JPZK0ji-hKKs32w-uGpX-13" value="" style="endArrow=classic;startArrow=classic;html=1;rounded=0;exitX=0;exitY=0;exitDx=0;exitDy=0;entryX=1;entryY=1;entryDx=0;entryDy=0;fontFamily=宋体;fontSize=20;" edge="1" parent="1" source="JPZK0ji-hKKs32w-uGpX-9" target="JPZK0ji-hKKs32w-uGpX-6">
          <mxGeometry width="50" height="50" relative="1" as="geometry">
            <mxPoint x="-6750.5" y="-744" as="sourcePoint" />
            <mxPoint x="-6682.5" y="-786" as="targetPoint" />
          </mxGeometry>
        </mxCell>
        <mxCell id="JPZK0ji-hKKs32w-uGpX-14" value="" style="endArrow=classic;startArrow=classic;html=1;rounded=0;entryX=1;entryY=1;entryDx=0;entryDy=0;exitX=0;exitY=0;exitDx=0;exitDy=0;fontFamily=宋体;fontSize=20;" edge="1" parent="1" source="JPZK0ji-hKKs32w-uGpX-7" target="JPZK0ji-hKKs32w-uGpX-10">
          <mxGeometry width="50" height="50" relative="1" as="geometry">
            <mxPoint x="-6747.5" y="-887" as="sourcePoint" />
            <mxPoint x="-6686.5" y="-938" as="targetPoint" />
          </mxGeometry>
        </mxCell>
        <mxCell id="JPZK0ji-hKKs32w-uGpX-15" value="" style="endArrow=classic;html=1;rounded=0;exitX=0;exitY=0;exitDx=0;exitDy=0;fontFamily=宋体;fontSize=20;" edge="1" parent="1" source="JPZK0ji-hKKs32w-uGpX-5">
          <mxGeometry width="50" height="50" relative="1" as="geometry">
            <mxPoint x="-6657.5" y="-821" as="sourcePoint" />
            <mxPoint x="-6637.5" y="-866" as="targetPoint" />
          </mxGeometry>
        </mxCell>
        <mxCell id="JPZK0ji-hKKs32w-uGpX-16" value="" style="endArrow=classic;html=1;rounded=0;exitX=1;exitY=1;exitDx=0;exitDy=0;fontFamily=宋体;fontSize=20;" edge="1" parent="1" source="JPZK0ji-hKKs32w-uGpX-7">
          <mxGeometry width="50" height="50" relative="1" as="geometry">
            <mxPoint x="-6609.5" y="-843" as="sourcePoint" />
            <mxPoint x="-6637.5" y="-866" as="targetPoint" />
          </mxGeometry>
        </mxCell>
        <mxCell id="JPZK0ji-hKKs32w-uGpX-17" value="" style="endArrow=classic;html=1;rounded=0;exitX=0.5;exitY=1;exitDx=0;exitDy=0;fontFamily=宋体;fontSize=20;" edge="1" parent="1" source="JPZK0ji-hKKs32w-uGpX-7">
          <mxGeometry width="50" height="50" relative="1" as="geometry">
            <mxPoint x="-6695.5" y="-886" as="sourcePoint" />
            <mxPoint x="-6677.5" y="-856" as="targetPoint" />
          </mxGeometry>
        </mxCell>
        <mxCell id="JPZK0ji-hKKs32w-uGpX-18" value="" style="endArrow=classic;html=1;rounded=0;exitX=0;exitY=1;exitDx=0;exitDy=0;fontFamily=宋体;fontSize=20;" edge="1" parent="1" source="JPZK0ji-hKKs32w-uGpX-5">
          <mxGeometry width="50" height="50" relative="1" as="geometry">
            <mxPoint x="-6609.5" y="-843" as="sourcePoint" />
            <mxPoint x="-6647.5" y="-826" as="targetPoint" />
          </mxGeometry>
        </mxCell>
        <mxCell id="JPZK0ji-hKKs32w-uGpX-19" value="" style="endArrow=classic;html=1;rounded=0;exitX=1;exitY=0;exitDx=0;exitDy=0;fontFamily=宋体;fontSize=20;" edge="1" parent="1" source="JPZK0ji-hKKs32w-uGpX-6">
          <mxGeometry width="50" height="50" relative="1" as="geometry">
            <mxPoint x="-6604.5" y="-838" as="sourcePoint" />
            <mxPoint x="-6647.5" y="-826" as="targetPoint" />
          </mxGeometry>
        </mxCell>
        <mxCell id="JPZK0ji-hKKs32w-uGpX-20" value="" style="endArrow=classic;html=1;rounded=0;exitX=0.5;exitY=0;exitDx=0;exitDy=0;fontFamily=宋体;fontSize=20;" edge="1" parent="1" source="JPZK0ji-hKKs32w-uGpX-6">
          <mxGeometry width="50" height="50" relative="1" as="geometry">
            <mxPoint x="-6599.5" y="-833" as="sourcePoint" />
            <mxPoint x="-6677.5" y="-856" as="targetPoint" />
          </mxGeometry>
        </mxCell>
        <mxCell id="JPZK0ji-hKKs32w-uGpX-21" value="原始图像" style="text;html=1;align=center;verticalAlign=middle;whiteSpace=wrap;rounded=0;fontFamily=宋体;fontSize=20;" vertex="1" parent="1">
          <mxGeometry x="-7585" y="-720" width="255" height="30" as="geometry" />
        </mxCell>
        <mxCell id="JPZK0ji-hKKs32w-uGpX-22" value="向量表示" style="text;html=1;align=center;verticalAlign=middle;whiteSpace=wrap;rounded=0;fontFamily=宋体;fontSize=20;" vertex="1" parent="1">
          <mxGeometry x="-7104" y="-720" width="255" height="30" as="geometry" />
        </mxCell>
        <mxCell id="JPZK0ji-hKKs32w-uGpX-23" value="" style="rounded=0;whiteSpace=wrap;html=1;fillColor=none;fontFamily=宋体;fontSize=20;" vertex="1" parent="1">
          <mxGeometry x="-6810" y="-979" width="260" height="255" as="geometry" />
        </mxCell>
        <mxCell id="JPZK0ji-hKKs32w-uGpX-25" value="" style="endArrow=none;dashed=1;html=1;rounded=0;fontFamily=宋体;fontSize=20;" edge="1" parent="1">
          <mxGeometry width="50" height="50" relative="1" as="geometry">
            <mxPoint x="-6520" y="-689" as="sourcePoint" />
            <mxPoint x="-6520" y="-979" as="targetPoint" />
          </mxGeometry>
        </mxCell>
        <mxCell id="JPZK0ji-hKKs32w-uGpX-26" value="对比学习损失" style="text;html=1;align=center;verticalAlign=middle;whiteSpace=wrap;rounded=0;fontFamily=宋体;fontSize=20;" vertex="1" parent="1">
          <mxGeometry x="-6810" y="-720" width="260" height="30" as="geometry" />
        </mxCell>
        <mxCell id="JPZK0ji-hKKs32w-uGpX-27" value="真值图" style="text;html=1;align=center;verticalAlign=middle;whiteSpace=wrap;rounded=0;fontFamily=宋体;fontSize=20;" vertex="1" parent="1">
          <mxGeometry x="-6490" y="-719.5" width="255" height="30" as="geometry" />
        </mxCell>
        <mxCell id="JPZK0ji-hKKs32w-uGpX-29" value="" style="endArrow=classic;html=1;rounded=0;entryX=0;entryY=0.5;entryDx=0;entryDy=0;fontFamily=宋体;fontSize=20;" edge="1" parent="1" target="JPZK0ji-hKKs32w-uGpX-4">
          <mxGeometry width="50" height="50" relative="1" as="geometry">
            <mxPoint x="-7320" y="-850" as="sourcePoint" />
            <mxPoint x="-7285" y="-835" as="targetPoint" />
          </mxGeometry>
        </mxCell>
        <mxCell id="JPZK0ji-hKKs32w-uGpX-30" value="" style="endArrow=classic;html=1;rounded=0;fontFamily=宋体;fontSize=20;" edge="1" parent="1">
          <mxGeometry width="50" height="50" relative="1" as="geometry">
            <mxPoint x="-7160" y="-850.21" as="sourcePoint" />
            <mxPoint x="-7115" y="-850" as="targetPoint" />
          </mxGeometry>
        </mxCell>
      </root>
    </mxGraphModel>
  </diagram>
</mxfile>
